<?xml version="1.0" encoding="utf-8"?>
<!-- Generator: Adobe Illustrator 17.0.0, SVG Export Plug-In . SVG Version: 6.00 Build 0)  -->
<!DOCTYPE svg PUBLIC "-//W3C//DTD SVG 1.1//EN" "http://www.w3.org/Graphics/SVG/1.1/DTD/svg11.dtd">
<svg version="1.1" id="Layer_1" xmlns="http://www.w3.org/2000/svg" xmlns:xlink="http://www.w3.org/1999/xlink" x="0px" y="0px"
	 width="841.89px" height="595.28px" viewBox="0 0 841.89 595.28" enable-background="new 0 0 841.89 595.28" xml:space="preserve">
<g>
	<defs>
		<rect id="SVGID_1_" x="37.765" y="29.183" width="766.36" height="536.914"/>
	</defs>
	<clipPath id="SVGID_2_">
		<use xlink:href="#SVGID_1_"  overflow="visible"/>
	</clipPath>
	<path clip-path="url(#SVGID_2_)" fill="#444141" d="M791.578,48.276c-1.509,0.038-3.588-0.11-4.7-1.067
		c-0.498-0.43-0.741-0.98-0.741-1.684c0-0.926,0.783-1.395,0.814-1.412c0.234-0.133,0.318-0.431,0.184-0.666
		c-0.133-0.236-0.43-0.319-0.665-0.185c-0.054,0.029-1.312,0.757-1.312,2.263c0,0.992,0.365,1.808,1.084,2.427
		c1.332,1.146,3.637,1.337,5.295,1.305c-0.023,1.652,0.187,3.886,1.308,5.191c0.617,0.718,1.433,1.082,2.426,1.082
		c1.505,0,2.234-1.257,2.263-1.31c0.133-0.234,0.05-0.529-0.182-0.664c-0.233-0.133-0.532-0.053-0.668,0.18
		c-0.019,0.033-0.488,0.816-1.413,0.816c-0.704,0-1.255-0.242-1.685-0.742c-0.935-1.087-1.098-3.1-1.069-4.599
		c0.56-0.042,0.932-0.096,0.981-0.104c0.128-0.014,3.112-0.377,4.766-2.03c0.765-0.765,1.478-2.191,2.304-3.842
		c0.953-1.904,2.032-4.063,3.442-5.725c0.164-0.193,0.152-0.481-0.029-0.662c-0.178-0.18-0.466-0.192-0.661-0.027
		c-1.661,1.408-3.821,2.491-5.729,3.447c-1.656,0.828-3.083,1.543-3.848,2.309c-1.649,1.65-2.037,4.485-2.053,4.596
		C791.682,47.231,791.62,47.652,791.578,48.276 M792.659,47.31c0.004-0.026,0.363-2.629,1.776-4.042
		c0.653-0.653,2.016-1.335,3.593-2.126c1.151-0.576,2.392-1.197,3.574-1.914c-0.713,1.182-1.334,2.421-1.909,3.57
		c-0.788,1.574-1.468,2.935-2.12,3.588c-1.41,1.41-4.159,1.746-4.204,1.752c-0.012,0.002-0.32,0.047-0.805,0.086
		C792.606,47.679,792.658,47.326,792.659,47.31"/>
	<path clip-path="url(#SVGID_2_)" fill="#444141" d="M537.712,41.035h223.641c0.094-1,0.491-1.962,1.144-2.61
		c0.834-0.825,2.022-1.454,3.433-1.454c0.27,0,0.49,0.219,0.49,0.489c0,0.27-0.22,0.489-0.49,0.489
		c-1.148,0-2.097,0.339-2.744,0.981c-0.566,0.559-0.876,1.321-0.876,2.147c0,1.626,1.21,3.375,3.87,3.375
		c2.445,0,4.732-0.574,6.924-1.413c0.903-0.654,1.184-1.552,1.258-2.196c0.123-1.079-0.245-2.042-0.64-2.479
		c-0.373-0.415-0.839-0.643-1.346-0.66c-0.516-0.015-1.042,0.19-1.416,0.553c-1.012,0.986-0.356,1.85-0.279,1.945
		c0.171,0.207,0.143,0.515-0.063,0.687c-0.205,0.172-0.51,0.148-0.683-0.057c-0.475-0.555-1.012-1.956,0.343-3.276
		c0.568-0.552,1.352-0.859,2.129-0.829c0.781,0.025,1.487,0.365,2.042,0.982c0.676,0.752,1.023,2.026,0.883,3.245
		c-0.052,0.464-0.177,0.902-0.361,1.304c1.341-0.603,2.652-1.275,3.948-1.94c3.356-1.721,6.528-3.347,9.611-3.347
		c2.78,0,3.927,1.992,4.147,3.046c0.054,0.264-0.115,0.523-0.38,0.579c-0.263,0.053-0.523-0.115-0.578-0.378
		c-0.021-0.096-0.528-2.269-3.189-2.269c-2.847,0-5.916,1.574-9.164,3.239c-0.278,0.143-0.557,0.286-0.841,0.429
		c-0.92,0.655-1.205,1.563-1.279,2.213c-0.124,1.08,0.244,2.043,0.639,2.481c0.373,0.414,0.839,0.642,1.347,0.66
		c0.515,0.015,1.042-0.189,1.415-0.551c1.012-0.987,0.358-1.848,0.279-1.943c-0.17-0.208-0.143-0.51,0.062-0.682
		c0.207-0.172,0.51-0.137,0.685,0.067c0.473,0.557,1.012,1.979-0.345,3.299c-0.545,0.531-1.282,0.874-2.036,0.874h-0.094
		c-0.779,0-1.484-0.405-2.04-1.022c-0.677-0.751-1.024-2.062-0.884-3.282c0.046-0.397,0.146-0.76,0.291-1.113
		c-0.966,0.463-1.961,0.933-2.984,1.328c-0.047,0.026-0.094,0.095-0.143,0.105c-2.28,0.868-4.699,1.581-7.258,1.581
		c-2.91,0-4.552-1.597-4.811-3.597H537.712L537.712,41.035z"/>
	<path clip-path="url(#SVGID_2_)" fill="#444141" d="M49.591,40.593c0.263,0.057,0.522-0.112,0.579-0.375
		c0.021-0.092,0.527-2.269,3.19-2.269c2.847,0,5.915,1.574,9.165,3.239c0.277,0.143,0.556,0.286,0.839,0.429
		c0.922,0.656,1.206,1.563,1.282,2.213c0.122,1.079-0.246,2.042-0.64,2.48c-0.374,0.414-0.84,0.642-1.347,0.659
		c-0.513,0.015-1.043-0.19-1.415-0.552c-1.011-0.985-0.36-1.847-0.28-1.944c0.173-0.207,0.148-0.513-0.058-0.688
		c-0.205-0.174-0.514-0.15-0.689,0.056c-0.474,0.556-1.011,1.956,0.345,3.277c0.544,0.531,1.282,0.83,2.036,0.83
		c0.032,0,0.062-0.001,0.092-0.002c0.78-0.025,1.487-0.365,2.043-0.982c0.675-0.751,1.023-2.025,0.882-3.245
		c-0.045-0.397-0.146-0.774-0.289-1.126c0.967,0.462,1.96,0.907,2.983,1.303c0.047,0.027,0.094,0.044,0.144,0.054
		c2.279,0.868,4.699,1.682,7.258,1.682c2.91,0,4.552-1.597,4.811-3.597h217.755l0.166-1H80.536c-0.092-1-0.489-1.962-1.142-2.61
		c-0.836-0.825-2.025-1.358-3.435-1.358c-0.269,0-0.488,0.17-0.488,0.441c0,0.27,0.219,0.465,0.488,0.465
		c1.149,0,2.098,0.327,2.747,0.969c0.564,0.559,0.874,1.315,0.874,2.141c0,1.626-1.212,3.372-3.869,3.372
		c-2.446,0-4.732-0.576-6.925-1.415c-0.903-0.652-1.183-1.552-1.257-2.196c-0.123-1.079,0.245-2.043,0.638-2.48
		c0.374-0.415,0.84-0.643,1.348-0.66c0.513-0.014,1.042,0.19,1.414,0.553c1.012,0.984,0.36,1.847,0.28,1.944
		c-0.173,0.206-0.147,0.513,0.058,0.686c0.205,0.175,0.515,0.151,0.689-0.055c0.474-0.555,1.011-1.956-0.344-3.276
		c-0.567-0.552-1.342-0.858-2.129-0.829c-0.78,0.025-1.487,0.365-2.042,0.982c-0.677,0.752-1.024,2.027-0.883,3.245
		c0.053,0.464,0.177,0.902,0.36,1.304c-1.34-0.603-2.65-1.275-3.948-1.94c-3.357-1.722-6.526-3.347-9.61-3.347
		c-2.78,0-3.927,1.992-4.146,3.046C49.159,40.281,49.328,40.537,49.591,40.593"/>
	<g clip-path="url(#SVGID_2_)">
		<path fill="#444141" d="M304.178,554H80.537c-0.094,1-0.491,1.962-1.144,2.61c-0.834,0.825-2.022,1.454-3.433,1.454
			c-0.27,0-0.49-0.219-0.49-0.489c0-0.27,0.22-0.489,0.49-0.489c1.148,0,2.097-0.339,2.744-0.981
			c0.566-0.559,0.876-1.321,0.876-2.147c0-1.626-1.21-3.375-3.87-3.375c-2.445,0-4.732,0.574-6.924,1.413
			c-0.903,0.654-1.184,1.552-1.258,2.196c-0.123,1.079,0.245,2.042,0.64,2.479c0.373,0.415,0.839,0.643,1.346,0.66
			c0.516,0.015,1.042-0.19,1.416-0.553c1.012-0.986,0.356-1.85,0.279-1.945c-0.171-0.207-0.143-0.515,0.063-0.687
			c0.205-0.172,0.51-0.148,0.683,0.057c0.475,0.555,1.012,1.956-0.343,3.276c-0.568,0.552-1.352,0.859-2.129,0.829
			c-0.781-0.025-1.487-0.365-2.042-0.982c-0.676-0.752-1.023-2.026-0.883-3.245c0.052-0.464,0.177-0.902,0.361-1.304
			c-1.341,0.603-2.652,1.275-3.948,1.94c-3.356,1.721-6.528,3.347-9.611,3.347c-2.78,0-3.927-1.992-4.147-3.046
			c-0.054-0.264,0.115-0.523,0.38-0.579c0.263-0.053,0.523,0.115,0.578,0.378c0.021,0.096,0.528,2.269,3.189,2.269
			c2.847,0,5.916-1.574,9.164-3.239c0.278-0.143,0.557-0.286,0.841-0.429c0.92-0.655,1.205-1.563,1.279-2.213
			c0.124-1.08-0.244-2.043-0.639-2.481c-0.373-0.414-0.839-0.642-1.347-0.66c-0.515-0.015-1.042,0.189-1.415,0.551
			c-1.012,0.987-0.358,1.848-0.279,1.943c0.17,0.208,0.143,0.51-0.062,0.682c-0.207,0.172-0.51,0.137-0.685-0.067
			c-0.473-0.557-1.012-1.979,0.345-3.299c0.545-0.531,1.282-0.874,2.036-0.874h0.094c0.779,0,1.484,0.405,2.04,1.022
			c0.677,0.751,1.024,2.062,0.884,3.282c-0.046,0.397-0.146,0.76-0.291,1.113c0.966-0.463,1.961-0.933,2.984-1.328
			c0.047-0.026,0.094-0.095,0.143-0.105c2.28-0.868,4.699-1.581,7.258-1.581c2.91,0,4.552,1.597,4.811,3.597h223.657L304.178,554z"
			/>
		<path fill="#444141" d="M792.299,554.442c-0.263-0.057-0.522,0.112-0.579,0.375c-0.021,0.092-0.527,2.269-3.19,2.269
			c-2.847,0-5.915-1.574-9.165-3.239c-0.277-0.143-0.556-0.286-0.839-0.429c-0.922-0.656-1.206-1.563-1.282-2.213
			c-0.122-1.079,0.246-2.042,0.64-2.48c0.374-0.414,0.84-0.642,1.347-0.659c0.513-0.015,1.043,0.19,1.415,0.552
			c1.011,0.985,0.36,1.847,0.28,1.944c-0.173,0.207-0.148,0.513,0.058,0.688c0.205,0.174,0.514,0.15,0.689-0.056
			c0.474-0.556,1.011-1.956-0.345-3.277c-0.544-0.531-1.282-0.83-2.036-0.83c-0.032,0-0.062,0.001-0.092,0.002
			c-0.78,0.025-1.487,0.365-2.043,0.982c-0.675,0.751-1.023,2.025-0.882,3.245c0.045,0.397,0.146,0.774,0.289,1.126
			c-0.967-0.462-1.96-0.907-2.983-1.303c-0.047-0.027-0.094-0.044-0.144-0.054c-2.279-0.868-4.699-1.682-7.258-1.682
			c-2.91,0-4.552,1.597-4.811,3.597H543.613l-0.166,1h217.907c0.092,1,0.489,1.962,1.142,2.61c0.836,0.825,2.025,1.358,3.435,1.358
			c0.269,0,0.488-0.17,0.488-0.441c0-0.27-0.219-0.465-0.488-0.465c-1.149,0-2.098-0.327-2.747-0.969
			c-0.564-0.559-0.874-1.315-0.874-2.141c0-1.626,1.212-3.372,3.869-3.372c2.446,0,4.732,0.576,6.925,1.415
			c0.903,0.652,1.183,1.552,1.257,2.196c0.123,1.079-0.245,2.043-0.638,2.48c-0.374,0.415-0.84,0.643-1.348,0.66
			c-0.513,0.014-1.042-0.19-1.414-0.553c-1.012-0.984-0.36-1.847-0.28-1.944c0.173-0.206,0.147-0.513-0.058-0.686
			c-0.205-0.175-0.515-0.151-0.689,0.055c-0.474,0.555-1.011,1.956,0.344,3.276c0.567,0.552,1.342,0.858,2.129,0.829
			c0.78-0.025,1.487-0.365,2.042-0.982c0.677-0.752,1.024-2.027,0.883-3.245c-0.053-0.464-0.177-0.902-0.36-1.304
			c1.34,0.603,2.65,1.275,3.948,1.94c3.357,1.722,6.526,3.347,9.61,3.347c2.78,0,3.927-1.992,4.146-3.046
			C792.731,554.754,792.562,554.498,792.299,554.442"/>
	</g>
	<path clip-path="url(#SVGID_2_)" fill="#444141" d="M45.438,64.391c1.044,0,2.064-0.337,2.704-0.915
		c0.618-0.556,0.958-1.261,0.983-2.041c0.026-0.785-0.276-1.562-0.829-2.129c-1.32-1.356-2.721-0.818-3.277-0.344
		c-0.205,0.175-0.23,0.484-0.055,0.689c0.175,0.205,0.484,0.23,0.689,0.055c0.037-0.031,0.923-0.764,1.942,0.282
		c0.363,0.373,0.569,0.901,0.553,1.415c-0.017,0.507-0.246,0.973-0.66,1.347c-0.438,0.394-1.4,0.762-2.48,0.638
		c-0.649-0.074-1.558-0.358-2.212-1.279c-0.144-0.283-0.287-0.562-0.43-0.84c-1.665-3.249-3.237-6.317-3.237-9.164
		c0-2.663,2.174-3.17,2.267-3.19c0.263-0.055,0.432-0.314,0.378-0.577c-0.056-0.264-0.315-0.434-0.578-0.38
		c-1.055,0.219-3.047,1.367-3.047,4.147c0,3.083,1.627,6.253,3.348,9.611c0.665,1.296,1.337,2.608,1.939,3.947
		c-0.401-0.185-0.84-0.308-1.304-0.361c-1.218-0.14-2.494,0.207-3.244,0.883c-0.618,0.556-0.958,1.262-0.983,2.042
		c-0.026,0.785,0.276,1.562,0.83,2.129c0.625,0.643,1.27,0.86,1.833,0.86c0.625,0,1.15-0.266,1.443-0.515
		c0.204-0.174,0.228-0.478,0.056-0.685c-0.171-0.206-0.48-0.233-0.687-0.063c-0.094,0.078-0.96,0.734-1.945-0.279
		c-0.363-0.372-0.568-0.902-0.553-1.415c0.017-0.508,0.247-0.973,0.66-1.347c0.437-0.395,1.4-0.764,2.479-0.638
		c0.645,0.073,1.543,0.353,2.196,1.257c0.838,2.192,1.414,4.479,1.414,6.924c0,2.516-1.567,3.734-3.113,3.858
		c-0.025-0.004-0.053-0.008-0.082-0.008c-0.042,0-0.083,0.007-0.122,0.018c-0.02,0-0.039,0.003-0.058,0.003
		c-0.827,0-1.589-0.311-2.148-0.876c-0.641-0.648-0.979-1.598-0.979-2.746c0-0.271-0.221-0.489-0.491-0.489
		c-0.269,0-0.489,0.218-0.489,0.489c0,1.411,0.125,2.598,0.952,3.434c0.674,0.679,2.222,1.08,2.222,1.15v435.998
		c0,0.071-1.548,0.471-2.222,1.15c-0.827,0.837-1.108,2.024-1.108,3.435c0,0.27,0.298,0.489,0.567,0.489
		c0.271,0,0.527-0.219,0.527-0.489c0-1.148,0.361-2.097,1.002-2.746c0.559-0.565,1.331-0.876,2.157-0.876
		c1.626,0,3.38,1.212,3.38,3.871c0,2.446-0.573,4.733-1.411,6.924c-0.652,0.903-1.55,1.183-2.195,1.258
		c-1.081,0.123-2.041-0.246-2.478-0.64c-0.413-0.374-0.643-0.838-0.66-1.345c-0.015-0.514,0.19-1.043,0.553-1.416
		c0.984-1.011,1.848-0.359,1.944-0.28c0.206,0.173,0.513,0.147,0.687-0.057c0.175-0.206,0.149-0.514-0.055-0.69
		c-0.555-0.473-1.956-1.01-3.276,0.345c-0.554,0.567-0.856,1.343-0.83,2.129c0.025,0.78,0.365,1.485,0.983,2.041
		c0.64,0.578,1.66,0.915,2.704,0.915c0.181,0,0.362-0.011,0.54-0.031c0.464-0.053,0.903-0.177,1.304-0.362
		c-0.602,1.341-1.274,2.652-1.939,3.948c-1.721,3.357-3.348,6.528-3.348,9.611c0,2.779,1.992,3.928,3.047,4.147
		c0.033,0.006,0.066,0.01,0.099,0.01c0.225,0,0.427-0.158,0.477-0.387c0.055-0.264-0.113-0.523-0.376-0.581
		c-0.093-0.02-2.267-0.525-2.267-3.189c0-2.847,1.572-5.916,3.237-9.165c0.143-0.277,0.287-0.557,0.43-0.839
		c0.654-0.922,1.563-1.205,2.212-1.28c1.079-0.123,2.042,0.245,2.48,0.639c0.414,0.373,0.643,0.839,0.66,1.347
		c0.016,0.513-0.19,1.042-0.553,1.415c-0.984,1.011-1.846,0.359-1.944,0.279c-0.207-0.173-0.513-0.146-0.687,0.059
		c-0.175,0.205-0.15,0.513,0.055,0.689c0.293,0.248,0.817,0.515,1.443,0.515c0.563,0,1.207-0.217,1.834-0.86
		c0.553-0.568,0.855-1.343,0.829-2.13c-0.025-0.779-0.365-1.485-0.983-2.04c-0.75-0.678-2.026-1.024-3.244-0.884
		c-0.398,0.045-0.773,0.146-1.127,0.289c0.464-0.968,0.91-1.964,1.306-2.989c0.025-0.045,0.045-0.093,0.054-0.142
		c0.867-2.277,1.176-4.694,1.176-7.253c0-2.853-1.984-4.486-3.984-4.794V79.248c2-0.307,3.984-1.94,3.984-4.793
		c0-2.559-0.461-4.976-1.327-7.254c-0.01-0.048,0.047-0.096,0.021-0.141c-0.396-1.025-0.805-2.021-1.268-2.989
		c0.352,0.143,0.75,0.244,1.146,0.289C45.059,64.381,45.257,64.391,45.438,64.391"/>
	<path clip-path="url(#SVGID_2_)" fill="#444141" d="M41.322,43.235c0.825,1.652,1.539,3.077,2.304,3.842
		c1.653,1.653,4.638,2.016,4.748,2.028c0.055,0.008,0.431,0.063,0.998,0.106c0.028,1.497-0.132,3.512-1.07,4.6
		c-0.429,0.499-0.98,0.741-1.684,0.741c-0.922,0-1.391-0.777-1.414-0.816c-0.133-0.234-0.431-0.315-0.664-0.183
		c-0.236,0.133-0.318,0.431-0.186,0.667c0.03,0.053,0.759,1.31,2.264,1.31c0.993,0,1.809-0.364,2.428-1.082
		c1.121-1.305,1.33-3.542,1.306-5.191c1.66,0.033,3.964-0.161,5.296-1.305c0.718-0.619,1.083-1.435,1.083-2.427
		c0-1.506-1.257-2.234-1.311-2.263c-0.235-0.133-0.535-0.051-0.666,0.185c-0.133,0.235-0.049,0.533,0.185,0.666
		c0.008,0.005,0.814,0.47,0.814,1.412c0,0.704-0.243,1.254-0.742,1.684c-1.111,0.957-3.191,1.106-4.7,1.067
		c-0.042-0.621-0.102-1.039-0.112-1.093c-0.015-0.121-0.402-2.956-2.053-4.606c-0.765-0.766-2.193-1.481-3.847-2.309
		c-1.907-0.956-4.068-2.039-5.73-3.447c-0.194-0.165-0.481-0.153-0.662,0.027c-0.18,0.181-0.191,0.469-0.027,0.662
		C39.289,39.172,40.369,41.331,41.322,43.235 M43.862,41.142c1.577,0.791,2.939,1.473,3.593,2.126
		c1.413,1.413,1.771,4.016,1.776,4.051c0.002,0.013,0.053,0.364,0.094,0.904c-0.491-0.039-0.806-0.085-0.822-0.088
		c-0.028-0.003-2.771-0.334-4.186-1.749c-0.653-0.653-1.333-2.013-2.121-3.588c-0.574-1.149-1.194-2.388-1.909-3.57
		C41.47,39.945,42.712,40.566,43.862,41.142"/>
	<path clip-path="url(#SVGID_2_)" fill="#444141" d="M801.441,70.226c-0.43-0.005-0.735-0.227-0.79-0.272
		c-0.114-0.095-0.258-0.124-0.394-0.102c-0.157-0.019-0.321,0.029-0.431,0.159c-0.176,0.206-0.151,0.514,0.054,0.69
		c0.292,0.249,0.818,0.515,1.443,0.515c0.011,0,0.022-0.003,0.033-0.003c0.588,0.028,1.273-0.173,1.939-0.856
		c0.553-0.568,0.855-1.344,0.83-2.13c-0.026-0.779-0.366-1.485-0.984-2.041c-0.579-0.522-1.473-0.834-2.411-0.891
		c-0.036-0.003-0.07-0.006-0.106-0.008c-0.063-0.003-0.123-0.015-0.187-0.015c-0.155,0-0.31,0.011-0.465,0.026
		c-0.071,0.005-0.142-0.004-0.214,0.004c-0.402,0.046-0.778,0.154-1.134,0.299c0.593-1.318,1.255-2.609,1.909-3.885
		c1.72-3.357,3.347-6.527,3.347-9.611c0-2.779-1.992-3.927-3.046-4.147c-0.034-0.006-0.067-0.01-0.1-0.01
		c-0.02,0-0.037,0.007-0.056,0.01c-0.258-0.043-0.507,0.121-0.56,0.38c-0.055,0.263,0.115,0.523,0.38,0.578
		c0.091,0.019,2.265,0.502,2.265,3.189c0,2.848-1.572,5.915-3.238,9.164c-0.143,0.278-0.286,0.558-0.431,0.841
		c-0.653,0.92-1.561,1.204-2.211,1.279c-0.224,0.025-0.439,0.019-0.65,0.006c-0.743-0.07-1.364-0.35-1.691-0.645
		c-0.414-0.373-0.644-0.838-0.661-1.346c-0.015-0.514,0.19-1.043,0.553-1.415c0.365-0.376,0.714-0.521,1.014-0.552
		c0.431,0.004,0.737,0.226,0.792,0.272c0.113,0.095,0.257,0.124,0.392,0.102c0.159,0.019,0.323-0.029,0.433-0.16
		c0.176-0.205,0.15-0.513-0.055-0.689c-0.293-0.248-0.817-0.516-1.443-0.516c-0.011,0-0.022,0.004-0.033,0.004
		c-0.588-0.028-1.273,0.173-1.939,0.856c-0.552,0.567-0.855,1.344-0.829,2.129c0.026,0.78,0.365,1.485,0.982,2.041
		c0.582,0.524,1.477,0.836,2.417,0.892c0.034,0.003,0.066,0.006,0.099,0.008c0.065,0.002,0.126,0.015,0.19,0.015
		c0.155,0,0.311-0.011,0.467-0.027c0.071-0.004,0.14,0.005,0.21-0.003c0.339-0.039,0.659-0.125,0.964-0.236
		c-0.455,0.952-0.893,1.929-1.281,2.935c-0.024,0.045-0.043,0.093-0.054,0.142c-0.867,2.277-1.297,4.694-1.297,7.253
		c0,2.849,0.859,4.48,3.853,4.792c0.002,0,0.005,0.001,0.007,0.002v0.04v435.998v0.04c-3,0.309-3.86,1.941-3.86,4.793
		c0,2.559,0.521,4.976,1.387,7.253c0.01,0.049-0.016,0.097,0.009,0.143c0.389,1.007,0.806,1.986,1.261,2.938
		c-0.312-0.112-0.64-0.2-0.982-0.239c-0.179-0.02-0.366-0.031-0.547-0.031c-0.08,0-0.157,0.016-0.236,0.02
		c-1.008,0.022-1.989,0.337-2.607,0.895c-0.617,0.555-0.956,1.261-0.982,2.041c-0.026,0.786,0.277,1.562,0.829,2.129
		c0.626,0.643,1.271,0.86,1.834,0.86c0.034,0,0.064-0.008,0.097-0.009c0.642,0.01,1.186-0.252,1.484-0.506
		c0.205-0.176,0.231-0.484,0.055-0.689c-0.11-0.13-0.273-0.179-0.431-0.159c-0.137-0.023-0.282,0.006-0.397,0.104
		c-0.022,0.018-0.328,0.26-0.775,0.27c-0.301-0.029-0.655-0.17-1.028-0.553c-0.363-0.372-0.568-0.901-0.553-1.415
		c0.017-0.507,0.247-0.972,0.661-1.346c0.327-0.295,0.948-0.575,1.692-0.646c0.211-0.013,0.425-0.019,0.649,0.006
		c0.65,0.075,1.558,0.358,2.211,1.279c0.145,0.283,0.288,0.563,0.431,0.841c1.666,3.249,3.238,6.317,3.238,9.165
		c0,2.661-2.173,3.168-2.268,3.189c-0.263,0.055-0.432,0.314-0.377,0.577c0.048,0.231,0.252,0.39,0.478,0.39
		c0.031,0,0.062-0.004,0.092-0.009c0.048,0.005,0.096,0.01,0.146,0c1.054-0.22,3.046-1.368,3.046-4.147
		c0-3.084-1.627-6.254-3.347-9.611c-0.655-1.277-1.317-2.569-1.91-3.887c0.356,0.146,0.733,0.254,1.135,0.3
		c0.18,0.02,0.361,0.031,0.541,0.031c0.08,0,0.159-0.016,0.239-0.019c1.007-0.021,1.984-0.337,2.603-0.895
		c0.618-0.556,0.958-1.262,0.984-2.041c0.025-0.786-0.277-1.562-0.83-2.13c-0.625-0.642-1.271-0.86-1.833-0.86
		c-0.034,0-0.063,0.009-0.095,0.01c-0.643-0.012-1.188,0.251-1.487,0.505c-0.205,0.176-0.23,0.484-0.054,0.69
		c0.111,0.131,0.276,0.179,0.434,0.159c0.135,0.021,0.277-0.008,0.389-0.101c0.054-0.044,0.357-0.264,0.785-0.272
		c0.301,0.029,0.653,0.171,1.023,0.551c0.363,0.373,0.568,0.902,0.551,1.416c-0.016,0.507-0.245,0.971-0.658,1.345
		c-0.329,0.296-0.953,0.577-1.699,0.647c-0.208,0.012-0.421,0.019-0.643-0.007c-0.644-0.073-1.543-0.354-2.196-1.258
		c-0.838-2.192-1.414-4.478-1.414-6.924c0-2.516,1.567-3.733,3.113-3.858c0.026,0.004,0.053,0.008,0.082,0.008
		c0.036,0,0.071-0.006,0.105-0.015c0.802,0.016,1.54,0.32,2.084,0.87c0.641,0.649,0.981,1.598,0.981,2.746
		c0,0.27,0.219,0.489,0.49,0.489c0.024,0,0.044-0.01,0.068-0.013c0.023,0.003,0.045,0.014,0.07,0.014
		c0.27,0,0.489-0.219,0.489-0.489c0-1.411-0.317-2.599-1.143-3.435c-0.39-0.393-1.131-0.689-1.692-0.886
		c-0.061-0.023-0.125-0.047-0.194-0.068c-0.307-0.104-0.528-0.171-0.528-0.196V79.289c0-0.025,0.225-0.094,0.539-0.2
		c0.059-0.018,0.112-0.037,0.165-0.057c0.562-0.197,1.315-0.495,1.71-0.893c0.826-0.837,1.204-2.024,1.204-3.435
		c0-0.27-0.25-0.489-0.52-0.489c-0.043,0-0.084,0.014-0.126,0.026c-0.039-0.012-0.075-0.026-0.121-0.026
		c-0.269,0-0.449,0.218-0.449,0.489c0,1.148-0.32,2.098-0.963,2.746c-0.542,0.548-1.266,0.851-2.063,0.869
		c-1.604-0.039-3.299-1.247-3.299-3.864c0-2.445,0.575-4.732,1.413-6.924c0.652-0.903,1.551-1.183,2.195-1.257
		c0.226-0.026,0.442-0.019,0.654-0.006c0.741,0.071,1.36,0.35,1.688,0.644c0.413,0.374,0.642,0.839,0.658,1.347
		c0.017,0.513-0.188,1.043-0.551,1.415C802.09,70.05,801.741,70.195,801.441,70.226"/>
	<path clip-path="url(#SVGID_2_)" fill="#444141" d="M800.569,551.34c-0.826-1.651-1.539-3.077-2.305-3.842
		c-1.653-1.653-4.637-2.015-4.747-2.027c-0.054-0.008-0.431-0.063-0.999-0.106c-0.029-1.498,0.134-3.512,1.069-4.6
		c0.429-0.499,0.981-0.741,1.685-0.741c0.922,0,1.391,0.777,1.413,0.816c0.134,0.233,0.431,0.315,0.665,0.182
		c0.235-0.133,0.318-0.431,0.185-0.666c-0.029-0.053-0.758-1.311-2.263-1.311c-0.993,0-1.809,0.365-2.427,1.084
		c-1.121,1.303-1.331,3.54-1.307,5.19c-1.658-0.032-3.964,0.16-5.295,1.305c-0.719,0.618-1.084,1.434-1.084,2.427
		c0,1.505,1.258,2.233,1.311,2.264c0.233,0.131,0.529,0.049,0.663-0.184c0.133-0.233,0.053-0.531-0.179-0.666
		c-0.033-0.02-0.817-0.488-0.817-1.414c0-0.704,0.244-1.255,0.742-1.684c1.112-0.958,3.191-1.104,4.699-1.068
		c0.043,0.622,0.104,1.039,0.112,1.094c0.017,0.12,0.404,2.955,2.054,4.606c0.764,0.765,2.192,1.48,3.848,2.309
		c1.907,0.955,4.068,2.038,5.729,3.446c0.092,0.078,0.203,0.116,0.316,0.116c0.125,0,0.251-0.048,0.345-0.143
		c0.181-0.18,0.193-0.468,0.028-0.662C802.601,555.404,801.522,553.246,800.569,551.34 M798.029,553.433
		c-1.578-0.79-2.94-1.472-3.593-2.126c-1.413-1.412-1.772-4.015-1.777-4.051c-0.001-0.013-0.053-0.363-0.094-0.903
		c0.49,0.038,0.806,0.085,0.822,0.087c0.028,0.003,2.777,0.34,4.187,1.749c0.652,0.654,1.332,2.014,2.12,3.589
		c0.575,1.148,1.195,2.387,1.909,3.569C800.421,554.631,799.179,554.01,798.029,553.433"/>
	<path clip-path="url(#SVGID_2_)" fill="#444141" d="M50.312,546.299c1.507-0.04,3.588,0.11,4.7,1.067
		c0.499,0.43,0.741,0.98,0.741,1.685c0,0.925-0.784,1.394-0.813,1.411c-0.234,0.133-0.318,0.431-0.186,0.666
		c0.132,0.236,0.432,0.319,0.666,0.186c0.055-0.03,1.312-0.758,1.312-2.263c0-0.993-0.364-1.809-1.083-2.428
		c-1.332-1.146-3.637-1.339-5.296-1.305c0.023-1.652-0.186-3.887-1.307-5.19c-0.618-0.718-1.434-1.083-2.427-1.083
		c-1.505,0-2.234,1.258-2.264,1.311c-0.131,0.233-0.05,0.529,0.184,0.663c0.232,0.133,0.531,0.053,0.666-0.18
		c0.019-0.033,0.488-0.816,1.414-0.816c0.704,0,1.255,0.242,1.684,0.742c0.937,1.086,1.098,3.1,1.07,4.599
		c-0.561,0.043-0.932,0.097-0.982,0.104c-0.126,0.015-3.111,0.377-4.765,2.03c-0.764,0.765-1.478,2.191-2.303,3.841
		c-0.953,1.906-2.033,4.065-3.443,5.726c-0.163,0.194-0.152,0.482,0.028,0.662c0.096,0.095,0.221,0.143,0.346,0.143
		c0.113,0,0.225-0.038,0.316-0.116c1.662-1.409,3.823-2.492,5.73-3.447c1.655-0.829,3.081-1.544,3.847-2.309
		c1.65-1.65,2.038-4.486,2.052-4.596C50.208,547.345,50.27,546.923,50.312,546.299 M49.231,547.266
		c-0.004,0.025-0.358,2.624-1.775,4.041c-0.654,0.653-2.015,1.335-3.593,2.126c-1.151,0.575-2.392,1.198-3.575,1.914
		c0.714-1.182,1.335-2.421,1.909-3.57c0.788-1.575,1.468-2.935,2.121-3.588c1.41-1.41,4.158-1.746,4.203-1.751
		c0.011-0.002,0.32-0.048,0.805-0.087C49.285,546.896,49.233,547.251,49.231,547.266"/>
	<path clip-path="url(#SVGID_2_)" fill="#444141" d="M489.645,57.094c-3.163,0-5.372-1.55-5.372-3.771c0-0.292-0.236-0.53-0.53-0.53
		c-0.293,0-0.53,0.238-0.53,0.53c0,2.8,2.705,4.831,6.432,4.831c3.901,0,6.005-3.226,6.005-6.26c0-1.815-0.703-3.491-1.98-4.722
		c-1.461-1.408-3.594-2.151-6.171-2.151c-4.108,0-9.655,1.821-15.592,4.214c-0.01,0.004-0.02,0.007-0.03,0.012
		c-2.989,1.205-6.077,2.554-9.13,3.889c-8.595,3.755-17.481,7.638-22.876,7.638c-9.45,0-10.185-5.592-10.185-7.306
		c0-6.173,4.393-7.818,6.989-7.818c3.092,0,4.939,1.631,4.939,4.363c0,0.293,0.238,0.53,0.531,0.53c0.292,0,0.529-0.237,0.529-0.53
		c0-3.295-2.355-5.425-5.999-5.425c-5.531,0-8.049,4.604-8.049,8.88c0,1.225,0.293,3.567,2.26,5.494
		c1.947,1.906,4.97,2.872,8.985,2.872c5.616,0,14.206-3.753,23.3-7.727c2.084-0.911,4.184-1.828,6.256-2.7
		c-0.669,0.867-1.138,1.839-1.374,2.874c-0.373,1.637-0.13,3.348,0.653,4.575c0.726,1.14,1.766,1.874,3.005,2.123
		c0.304,0.06,0.611,0.091,0.918,0.091c0.961,0,1.916-0.293,2.718-0.849c3.128-2.17,1.452-5.054,1.435-5.082
		c-0.151-0.251-0.476-0.333-0.728-0.182c-0.251,0.151-0.333,0.475-0.182,0.727c0.05,0.084,1.192,2.053-1.13,3.666
		c-0.81,0.561-1.865,0.782-2.822,0.59c-0.95-0.191-1.752-0.764-2.32-1.655c-0.633-0.993-0.825-2.401-0.514-3.769
		c0.277-1.213,1.064-2.943,3.235-4.306c5.824-2.346,11.238-4.13,15.178-4.13c2.297,0,4.176,0.643,5.436,1.856
		c1.066,1.029,1.655,2.434,1.655,3.958C494.59,54.416,492.856,57.094,489.645,57.094"/>
	<path clip-path="url(#SVGID_2_)" fill="#444141" d="M402.108,61.835c4.016,0,7.039-0.966,8.985-2.872
		c1.967-1.927,2.26-4.27,2.26-5.494c0-4.277-2.518-8.88-8.048-8.88c-3.645,0-6,2.13-6,5.425c0,0.293,0.237,0.53,0.531,0.53
		c0.292,0,0.529-0.237,0.529-0.53c0-2.733,1.847-4.364,4.94-4.364c2.595,0,6.989,1.646,6.989,7.819c0,6.78-7.797,7.306-10.186,7.306
		c-5.395,0-14.281-3.883-22.876-7.638c-3.052-1.335-6.14-2.684-9.128-3.889c-0.011-0.004-0.021-0.009-0.033-0.013
		c-5.936-2.392-11.483-4.213-15.591-4.213c-2.576,0-4.71,0.743-6.171,2.151c-1.276,1.23-1.98,2.907-1.98,4.722
		c0,1.621,0.558,3.151,1.571,4.307c1.104,1.26,2.679,1.953,4.434,1.953c3.727,0,6.433-2.031,6.433-4.831
		c0-0.293-0.238-0.53-0.531-0.53s-0.53,0.237-0.53,0.53c0,2.221-2.209,3.771-5.372,3.771c-3.211,0-4.945-2.679-4.945-5.2
		c0-1.524,0.589-2.929,1.656-3.958c1.259-1.213,3.138-1.856,5.435-1.856c3.94,0,9.354,1.783,15.178,4.13
		c2.172,1.362,2.958,3.093,3.235,4.306c0.311,1.368,0.119,2.776-0.514,3.769c-0.568,0.891-1.37,1.464-2.319,1.655
		c-0.956,0.192-2.013-0.029-2.822-0.59c-0.973-0.676-1.46-1.487-1.449-2.413c0.008-0.707,0.31-1.239,0.319-1.255
		c0.149-0.251,0.067-0.575-0.183-0.725c-0.251-0.151-0.577-0.069-0.728,0.182c-0.017,0.028-1.693,2.912,1.436,5.082
		c0.802,0.555,1.756,0.848,2.717,0.848c0.308,0,0.615-0.03,0.918-0.09c1.239-0.249,2.279-0.983,3.006-2.123
		c0.782-1.227,1.025-2.938,0.653-4.575c-0.236-1.035-0.706-2.007-1.374-2.875c2.071,0.873,4.171,1.789,6.255,2.701
		C387.902,58.082,396.493,61.835,402.108,61.835"/>
	<path clip-path="url(#SVGID_2_)" fill="#444141" d="M329.147,42.147h77.83c0.293,0,0.529-0.207,0.529-0.5
		c0-0.293-0.236-0.5-0.529-0.5h-77.83c-0.293,0-0.53,0.207-0.53,0.5C328.617,41.94,328.854,42.147,329.147,42.147"/>
	<path clip-path="url(#SVGID_2_)" fill="#444141" d="M321.562,41.33c0,0.564,0.457,1.021,1.022,1.021
		c0.564,0,1.022-0.457,1.022-1.021c0-0.565-0.458-1.022-1.022-1.022C322.019,40.308,321.562,40.765,321.562,41.33"/>
	<path clip-path="url(#SVGID_2_)" fill="#444141" d="M324.775,41.33c0,0.564,0.458,1.021,1.022,1.021
		c0.565,0,1.023-0.457,1.023-1.021c0-0.565-0.458-1.022-1.023-1.022C325.233,40.308,324.775,40.765,324.775,41.33"/>
	<path clip-path="url(#SVGID_2_)" fill="#444141" d="M513.541,41.647c0-0.293-0.238-0.5-0.53-0.5h-78.042
		c-0.292,0-0.53,0.207-0.53,0.5c0,0.293,0.238,0.5,0.53,0.5h78.042C513.303,42.147,513.541,41.94,513.541,41.647"/>
	<path clip-path="url(#SVGID_2_)" fill="#444141" d="M518.283,41.33c0,0.564,0.458,1.021,1.023,1.021
		c0.564,0,1.022-0.457,1.022-1.021c0-0.565-0.458-1.022-1.022-1.022C518.741,40.308,518.283,40.765,518.283,41.33"/>
	<path clip-path="url(#SVGID_2_)" fill="#444141" d="M516.093,40.307c-0.565,0-1.022,0.457-1.022,1.022
		c0,0.564,0.457,1.022,1.022,1.022c0.564,0,1.022-0.458,1.022-1.022C517.115,40.764,516.657,40.307,516.093,40.307"/>
	<path clip-path="url(#SVGID_2_)" fill="#444141" d="M427.791,38.848c1.012-0.077,1.875,0.258,2.639,1.021
		c1.03,1.031,0.676,2.41,0.662,2.465c-0.079,0.283,0.086,0.575,0.368,0.655c0.284,0.078,0.575-0.087,0.653-0.37
		c0.023-0.082,0.542-2.025-0.933-3.5c-0.981-0.981-2.147-1.428-3.468-1.33c-2.562,0.194-5.159,2.445-6.803,4.184
		c-1.651-1.725-4.191-3.885-6.697-4.073c-1.322-0.101-2.487,0.348-3.468,1.33c-1.475,1.474-0.957,3.419-0.934,3.5
		c0.078,0.281,0.369,0.444,0.65,0.368c0.281-0.076,0.447-0.368,0.373-0.651c-0.016-0.057-0.369-1.437,0.66-2.467
		c0.764-0.765,1.624-1.1,2.639-1.023c2.186,0.164,4.525,2.194,6.059,3.807c-0.592,0.681-0.957,1.17-1.004,1.234
		c-0.113,0.143-2.774,3.538-2.774,6.876c0,1.544,0.728,3.732,1.572,6.264c0.983,2.948,2.096,6.291,2.357,9.47
		c0.023,0.275,0.253,0.488,0.529,0.488s0.506-0.213,0.529-0.488c0.261-3.179,1.374-6.527,2.356-9.481
		c0.845-2.537,1.573-4.729,1.573-6.273c0-3.334-2.483-6.602-2.582-6.731c-0.052-0.071-0.46-0.621-1.115-1.364
		C423.159,41.134,425.554,39.017,427.791,38.848 M421.9,44.76c0.025,0.031,2.369,3.124,2.369,6.094c0,1.372-0.704,3.489-1.518,5.938
		c-0.665,2-1.389,4.177-1.88,6.382c-0.491-2.203-1.215-4.375-1.88-6.371c-0.814-2.445-1.518-4.557-1.518-5.929
		c0-2.966,2.52-6.185,2.556-6.231c0.012-0.017,0.339-0.455,0.884-1.086C421.519,44.249,421.886,44.742,421.9,44.76"/>
	<path clip-path="url(#SVGID_2_)" fill="#444141" d="M420.699,29.353l-2.584,2.59c-0.15,0.15-0.196,0.389-0.116,0.586l2.658,6.431
		c0.08,0.201,0.274,0.187,0.489,0.187h0.002c0.216,0,0.409,0.016,0.491-0.183l2.658-6.404c0.082-0.198,0.036-0.377-0.115-0.528
		l-2.734-2.707C421.241,29.119,420.907,29.146,420.699,29.353 M421.154,37.503l-2.041-5.071l1.961-1.96l2.109,2.108L421.154,37.503z
		"/>
	<path clip-path="url(#SVGID_2_)" fill="#444141" d="M353.196,538.185c3.163,0,5.372,1.55,5.372,3.77
		c0,0.293,0.236,0.531,0.53,0.531c0.293,0,0.53-0.238,0.53-0.531c0-2.799-2.705-4.831-6.432-4.831c-3.901,0-6.005,3.227-6.005,6.261
		c0,1.815,0.703,3.491,1.98,4.722c1.461,1.408,3.594,2.151,6.171,2.151c4.108,0,9.655-1.821,15.592-4.214
		c0.01-0.004,0.02-0.007,0.03-0.012c2.989-1.205,6.077-2.554,9.13-3.889c8.595-3.755,17.481-7.638,22.876-7.638
		c9.45,0,10.185,5.592,10.185,7.306c0,6.173-4.393,7.818-6.989,7.818c-3.092,0-4.939-1.631-4.939-4.363
		c0-0.293-0.238-0.53-0.53-0.53c-0.293,0-0.53,0.237-0.53,0.53c0,3.295,2.355,5.425,5.999,5.425c5.531,0,8.049-4.604,8.049-8.88
		c0-1.225-0.293-3.567-2.26-5.494c-1.947-1.906-4.97-2.872-8.985-2.872c-5.616,0-14.206,3.753-23.3,7.727
		c-2.084,0.911-4.184,1.828-6.256,2.7c0.669-0.867,1.139-1.839,1.374-2.874c0.373-1.637,0.13-3.348-0.652-4.575
		c-0.727-1.14-1.767-1.874-3.006-2.123c-0.304-0.06-0.611-0.091-0.918-0.091c-0.961,0-1.916,0.293-2.718,0.849
		c-3.127,2.17-1.452,5.054-1.435,5.082c0.151,0.251,0.476,0.333,0.728,0.182c0.251-0.151,0.333-0.475,0.182-0.727
		c-0.05-0.084-1.192-2.054,1.13-3.666c0.81-0.561,1.865-0.782,2.822-0.59c0.95,0.191,1.752,0.764,2.321,1.655
		c0.632,0.993,0.824,2.401,0.513,3.769c-0.277,1.213-1.064,2.943-3.235,4.306c-5.824,2.346-11.238,4.13-15.178,4.13
		c-2.297,0-4.176-0.643-5.435-1.856c-1.067-1.029-1.656-2.434-1.656-3.958C348.251,540.864,349.985,538.185,353.196,538.185"/>
	<path clip-path="url(#SVGID_2_)" fill="#444141" d="M440.733,533.445c-4.016,0-7.039,0.966-8.985,2.872
		c-1.967,1.927-2.26,4.27-2.26,5.494c0,4.277,2.518,8.88,8.048,8.88c3.645,0,6-2.13,6-5.425c0-0.293-0.237-0.53-0.531-0.53
		c-0.292,0-0.529,0.237-0.529,0.53c0,2.733-1.847,4.364-4.94,4.364c-2.595,0-6.989-1.646-6.989-7.819
		c0-6.78,7.797-7.305,10.186-7.305c5.395,0,14.281,3.882,22.876,7.637c3.052,1.335,6.14,2.684,9.128,3.889
		c0.011,0.004,0.021,0.009,0.033,0.013c5.936,2.392,11.483,4.213,15.591,4.213c2.576,0,4.71-0.743,6.171-2.151
		c1.276-1.23,1.98-2.907,1.98-4.722c0-1.621-0.558-3.151-1.572-4.307c-1.103-1.26-2.678-1.953-4.433-1.953
		c-3.727,0-6.433,2.031-6.433,4.831c0,0.293,0.238,0.53,0.531,0.53s0.53-0.237,0.53-0.53c0-2.221,2.209-3.771,5.372-3.771
		c3.211,0,4.945,2.679,4.945,5.2c0,1.524-0.589,2.929-1.656,3.958c-1.259,1.213-3.138,1.856-5.435,1.856
		c-3.94,0-9.354-1.783-15.178-4.13c-2.172-1.362-2.958-3.093-3.235-4.306c-0.311-1.368-0.119-2.776,0.514-3.769
		c0.568-0.891,1.37-1.464,2.319-1.654c0.956-0.193,2.013,0.028,2.822,0.589c0.973,0.676,1.46,1.487,1.449,2.413
		c-0.008,0.707-0.31,1.239-0.319,1.255c-0.15,0.251-0.067,0.575,0.183,0.725c0.251,0.151,0.577,0.069,0.728-0.182
		c0.017-0.028,1.693-2.912-1.436-5.082c-0.802-0.555-1.756-0.848-2.717-0.848c-0.308,0-0.615,0.03-0.918,0.09
		c-1.24,0.249-2.279,0.983-3.006,2.124c-0.782,1.226-1.025,2.937-0.653,4.574c0.236,1.035,0.706,2.008,1.374,2.875
		c-2.071-0.873-4.171-1.789-6.255-2.701C454.939,537.198,446.348,533.445,440.733,533.445"/>
	<path clip-path="url(#SVGID_2_)" fill="#444141" d="M513.694,553.147h-77.83c-0.293,0-0.529,0.207-0.529,0.5
		c0,0.293,0.236,0.5,0.529,0.5h77.83c0.292,0,0.53-0.207,0.53-0.5C514.224,553.354,513.986,553.147,513.694,553.147"/>
	<path clip-path="url(#SVGID_2_)" fill="#444141" d="M521.279,553.95c0-0.564-0.457-1.021-1.023-1.021
		c-0.564,0-1.022,0.457-1.022,1.021c0,0.565,0.458,1.022,1.022,1.022C520.822,554.972,521.279,554.515,521.279,553.95"/>
	<path clip-path="url(#SVGID_2_)" fill="#444141" d="M518.066,553.95c0-0.564-0.458-1.021-1.022-1.021
		c-0.565,0-1.023,0.457-1.023,1.021c0,0.565,0.458,1.022,1.023,1.022C517.608,554.972,518.066,554.515,518.066,553.95"/>
	<path clip-path="url(#SVGID_2_)" fill="#444141" d="M329.3,553.647c0,0.293,0.238,0.5,0.53,0.5h78.042c0.292,0,0.53-0.207,0.53-0.5
		c0-0.293-0.238-0.5-0.53-0.5H329.83C329.538,553.147,329.3,553.354,329.3,553.647"/>
	<path clip-path="url(#SVGID_2_)" fill="#444141" d="M324.558,553.95c0-0.564-0.458-1.021-1.023-1.021
		c-0.564,0-1.022,0.457-1.022,1.021c0,0.565,0.458,1.022,1.022,1.022C324.1,554.972,324.558,554.515,324.558,553.95"/>
	<path clip-path="url(#SVGID_2_)" fill="#444141" d="M326.748,554.972c0.565,0,1.022-0.457,1.022-1.022
		c0-0.564-0.457-1.022-1.022-1.022c-0.564,0-1.022,0.458-1.022,1.022C325.726,554.515,326.184,554.972,326.748,554.972"/>
	<path clip-path="url(#SVGID_2_)" fill="#444141" d="M415.05,556.431c-1.012,0.077-1.875-0.258-2.639-1.021
		c-1.03-1.031-0.676-2.411-0.662-2.465c0.079-0.283-0.086-0.575-0.368-0.655c-0.284-0.078-0.575,0.087-0.653,0.37
		c-0.023,0.082-0.542,2.025,0.933,3.5c0.981,0.981,2.147,1.428,3.468,1.33c2.562-0.194,5.159-2.445,6.803-4.184
		c1.651,1.725,4.191,3.885,6.697,4.073c1.322,0.101,2.487-0.348,3.468-1.33c1.475-1.474,0.957-3.419,0.934-3.5
		c-0.078-0.281-0.369-0.444-0.65-0.368c-0.281,0.076-0.447,0.368-0.373,0.651c0.017,0.057,0.37,1.437-0.66,2.467
		c-0.764,0.765-1.624,1.1-2.638,1.023c-2.186-0.164-4.526-2.194-6.06-3.807c0.592-0.681,0.958-1.17,1.004-1.234
		c0.113-0.143,2.774-3.538,2.774-6.876c0-1.544-0.728-3.732-1.572-6.264c-0.983-2.948-2.096-6.291-2.357-9.47
		c-0.023-0.275-0.253-0.488-0.529-0.488s-0.506,0.213-0.529,0.488c-0.261,3.179-1.374,6.527-2.356,9.481
		c-0.845,2.537-1.573,4.729-1.573,6.273c0,3.334,2.483,6.602,2.582,6.731c0.053,0.071,0.46,0.621,1.116,1.364
		C419.682,554.146,417.287,556.263,415.05,556.431 M420.941,550.519c-0.024-0.031-2.369-3.124-2.369-6.094
		c0-1.372,0.704-3.489,1.518-5.938c0.665-2,1.39-4.177,1.88-6.382c0.492,2.203,1.215,4.375,1.88,6.371
		c0.814,2.445,1.518,4.557,1.518,5.929c0,2.966-2.52,6.185-2.556,6.231c-0.012,0.017-0.339,0.455-0.884,1.086
		C421.322,551.031,420.955,550.538,420.941,550.519"/>
	<path clip-path="url(#SVGID_2_)" fill="#444141" d="M422.142,565.927l2.584-2.59c0.15-0.15,0.196-0.389,0.116-0.586l-2.658-6.424
		c-0.08-0.201-0.274-0.18-0.489-0.18h-0.002c-0.216,0-0.409-0.023-0.491,0.176l-2.658,6.401c-0.082,0.197-0.036,0.375,0.115,0.526
		l2.734,2.706C421.6,566.162,421.934,566.134,422.142,565.927 M421.687,557.777l2.041,5.071l-1.961,1.96l-2.109-2.108
		L421.687,557.777z"/>
</g>
<path fill="#444141" d="M413.771,273.148H290.968c-0.043-1-0.086-0.021-0.132-0.021c-0.192,0-0.385-0.979-0.577,0.021h-27.604
	c-0.275,0-0.5,0.223-0.5,0.5c0,0.276,0.225,0.5,0.5,0.5h23.399c-2.504,1-5.046,2.616-7.4,3.981
	c-0.346,0.201-0.693,0.496-1.036,0.694c-0.135,0.064-0.266,0.179-0.393,0.251c-0.037,0.022-0.07,0.072-0.099,0.101
	c-2.641,1.506-5.078,2.764-6.886,2.764c-3.561,0-4.889-1.828-4.889-2.984c0-1.195,0.599-3.216,2.85-3.216
	c1.229,0,1.935,0.614,1.935,1.682c0,0.277,0.224,0.5,0.5,0.5s0.5-0.223,0.5-0.499c0-1.629-1.154-2.679-2.935-2.679
	c-2.645,0-3.849,2.186-3.849,4.218c0,0.95,0.534,1.947,1.431,2.668c0.75,0.603,2.132,1.322,4.457,1.322
	c2.061,0,4.653-1.326,7.437-2.915c0.121-0.013,0.32-0.027,0.564-0.027c0.646,0,1.558,0.098,2.223,0.561
	c0.923,0.644,0.6,1.202,0.596,1.21c-0.044,0.051-0.316,0.258-0.763,0.266c-0.157,0.002-0.303,0.078-0.395,0.204
	c-0.092,0.126-0.121,0.288-0.077,0.437c0.023,0.074,0.233,0.737,0.961,1.244c0.346,0.242,0.802,0.375,1.284,0.375
	c0.885,0,1.694-0.44,2.161-1.176c0.74-1.16,0.705-2.986-1.111-4.254c-0.567-0.395-1.391-0.807-2.327-0.826
	c3.149-1.794,6.518-3.902,9.496-3.902h123.482c0.276,0,0.5-0.224,0.5-0.5C414.271,273.371,414.047,273.148,413.771,273.148
	 M282.549,279.696c1.371,0.957,1.308,2.159,0.84,2.898c-0.41,0.643-1.059,0.712-1.319,0.712c-0.275,0-0.533-0.071-0.712-0.195
	c-0.099-0.069-0.182-0.143-0.253-0.215c0.382-0.145,0.651-0.366,0.769-0.535c0.263-0.38,0.629-1.587-0.839-2.611
	c-0.311-0.217-0.652-0.372-0.997-0.484c0.209-0.022,0.417-0.032,0.625-0.032C281.452,279.234,282.121,279.398,282.549,279.696"/>
<path fill="#444141" d="M258.862,273.222c-0.322,0-0.583,0.26-0.583,0.582s0.261,0.582,0.583,0.582c0.32,0,0.582-0.26,0.582-0.582
	S259.182,273.222,258.862,273.222"/>
<path fill="#444141" d="M260.69,273.222c-0.32,0-0.582,0.26-0.582,0.582s0.262,0.582,0.582,0.582c0.322,0,0.583-0.26,0.583-0.582
	S261.012,273.222,260.69,273.222"/>
<path fill="#444141" d="M578.084,273.147h-27.602c-0.193,0-0.386-0.021-0.578-0.021c-0.046,0-0.089,0.021-0.132,0.021H426.969
	c-0.276,0-0.501,0.224-0.501,0.5c0,0.276,0.225,0.5,0.501,0.5h123.483c2.977,0,6.346,2.209,9.495,4.002
	c-0.936,0.019-1.76,0.386-2.327,0.782c-1.816,1.268-1.849,3.166-1.112,4.325c0.47,0.737,1.277,1.213,2.161,1.213
	c0.482,0,0.939-0.116,1.285-0.357c0.728-0.508,0.94-1.162,0.961-1.234c0.044-0.15,0.016-0.308-0.078-0.433
	c-0.092-0.127-0.237-0.199-0.392-0.202c-0.449-0.008-0.72-0.214-0.754-0.25c-0.014-0.024-0.337-0.581,0.587-1.225
	c0.663-0.463,1.575-0.56,2.222-0.56c0.245,0,0.442,0.014,0.564,0.027c2.784,1.588,5.376,2.915,7.435,2.915
	c4.29,0,5.891-2.447,5.891-3.989c0-2.032-1.205-4.219-3.849-4.219c-1.783,0-2.937,1.052-2.937,2.679c0,0.277,0.224,0.5,0.501,0.5
	c0.275,0,0.5-0.223,0.5-0.5c0-1.066,0.704-1.679,1.936-1.679c2.248,0,2.848,2.023,2.848,3.219c0,1.155-1.328,2.989-4.89,2.989
	c-1.807,0-4.243-1.246-6.885-2.752c-0.029-0.03-0.062-0.056-0.099-0.077c-0.128-0.073-0.258-0.14-0.393-0.205
	c-0.343-0.198-0.689-0.686-1.036-0.887c-2.352-1.367-4.896-3.082-7.4-4.082h23.398c0.277,0,0.501-0.224,0.501-0.5
	C578.585,273.371,578.361,273.147,578.084,273.147 M559.705,279.949c-1.467,1.024-1.102,2.232-0.838,2.611
	c0.117,0.168,0.386,0.39,0.768,0.535c-0.071,0.072-0.154,0.145-0.253,0.215c-0.177,0.125-0.436,0.195-0.713,0.195
	c-0.259,0-0.908-0.069-1.317-0.712c-0.47-0.739-0.532-1.941,0.84-2.897c0.427-0.298,1.098-0.464,1.886-0.464
	c0.208,0,0.417,0.012,0.625,0.034C560.357,279.577,560.016,279.733,559.705,279.949"/>
<path fill="#444141" d="M581.878,273.423c-0.32,0-0.582,0.26-0.582,0.582c0,0.322,0.262,0.582,0.582,0.582
	c0.322,0,0.583-0.26,0.583-0.582C582.461,273.683,582.2,273.423,581.878,273.423"/>
<path fill="#444141" d="M580.049,273.423c-0.322,0-0.582,0.26-0.582,0.582c0,0.322,0.26,0.582,0.582,0.582
	c0.321,0,0.581-0.26,0.581-0.582C580.63,273.683,580.37,273.423,580.049,273.423"/>
<path fill="#444141" d="M419.728,274.032c0,0.32,0.262,0.582,0.582,0.582c0.322,0,0.582-0.262,0.582-0.582
	c0-0.322-0.26-0.582-0.582-0.582C419.99,273.45,419.728,273.71,419.728,274.032"/>
<path fill="#444141" d="M424.724,273.45c-0.321,0-0.582,0.261-0.582,0.582c0,0.321,0.261,0.583,0.582,0.583
	c0.321,0,0.582-0.262,0.582-0.583C425.306,273.711,425.045,273.45,424.724,273.45"/>
<path fill="#444141" d="M415.896,273.45c-0.322,0-0.582,0.261-0.582,0.582c0,0.321,0.26,0.583,0.582,0.583
	c0.321,0,0.582-0.262,0.582-0.583C416.478,273.711,416.217,273.45,415.896,273.45"/>
<path fill="#444141" d="M420.601,271.087c-0.094-0.094-0.221-0.146-0.353-0.146c-0.134,0-0.26,0.052-0.355,0.146l-2.545,2.545
	c-0.093,0.094-0.146,0.221-0.146,0.354c0,0.132,0.053,0.26,0.146,0.354l2.545,2.544c0.098,0.099,0.226,0.146,0.355,0.146
	c0.127,0,0.255-0.047,0.353-0.146l2.546-2.544c0.194-0.196,0.194-0.512,0-0.708L420.601,271.087z M420.248,275.824l-1.839-1.838
	l1.839-1.839l1.837,1.839L420.248,275.824z"/>
<path d="M229.637,108.475c0.281,1.307-1.862,4.034-1.825,4.657c0.055,0.953,3.467,4.14,3.909,6.191
	c0.108,0.503,0.013,0.786-0.284,0.85c-0.238,0.051-0.429-0.254-0.572-0.918c-0.435-2.01-2.881-5.69-3.424-5.663
	c-1.022,0.049-5.931,5.549-10.506,8.276c-4.576,2.728-8.741,4.574-12.543,5.526c-0.532,0.133-1.251,0.167-1.404,0.289
	c-2.181,1.741-2.473,9.927-1.41,14.049c0.725,2.807,2.143,4.809,4.241,6.014c2.099,1.205,4.588,1.447,7.487,0.734
	c5.471-1.344,9.691-5.218,12.789-11.674c1.873-3.904,2.508-7.339,1.849-10.31c-0.347-1.567-1.085-2.709-2.22-3.425
	c-1.134-0.716-2.474-0.9-4.015-0.548c-2.469,0.563-4.819,2.498-7.01,5.799c-2.19,3.302-2.986,6.098-2.431,8.376
	c0.049,0.2,0.145,0.293,0.246,0.257c0.086-0.03,0.158-0.105,0.203-0.176c0.375-0.599,0.829-0.963,1.274-1.07
	c0.985-0.238,1.61,0.195,1.873,1.295c0.355,1.48-0.167,2.386-1.564,2.724c-1.28,0.31-2.115-0.332-2.506-1.93
	c-0.698-2.857,0.019-6.037,2.199-9.529c2.179-3.491,4.766-5.58,7.717-6.253c3.801-0.866,6.173,0.839,7.109,5.075
	c0.967,4.379-0.2,8.815-3.416,13.337c-3.215,4.522-7.222,7.362-12.094,8.56c-3.396,0.835-6.541,0.37-9.467-1.405
	c-2.927-1.774-4.859-4.391-5.77-7.873c-0.885-3.382,0.936-11.132,0.787-11.326c-0.912-1.19-14.128-1.592-15.549-6.789
	c-0.847-3.095,0.046-6.127,2.72-9.077c2.673-2.95,6.448-5.059,11.296-6.282c6.767-1.707,16.914,1.965,22.082,1.783
	c0.771-0.027,2.324-0.904,3.574-1.182C226.992,105.944,229.213,106.505,229.637,108.475 M218.589,108.331
	c-0.029-0.466-13.902-2.329-20.817-0.585c-4.276,1.078-7.752,3.05-10.399,5.882c-2.648,2.834-3.59,5.589-2.866,8.247
	c1.291,4.743,11.446,8.27,14.48,6.03C202.634,125.213,218.589,108.331,218.589,108.331 M227.108,113.222
	c-0.043-0.843-5.695-4.661-7.55-4.541c-2.347,0.151-6.783,4.492-9.734,7.835c-2.951,3.344-6.594,10.629-6.594,10.629
	c0.314,0.355,8.488-2.915,13.154-5.623C221.049,118.813,227.156,114.162,227.108,113.222 M229.154,108.579
	c-0.356-1.648-2.147-2.13-5.37-1.415c-1.008,0.223-3.499,1.226-3.499,1.226c0.005,0.235,6.677,4.482,7.208,4.432
	C228.07,112.768,229.384,109.644,229.154,108.579"/>
<path d="M246.709,130.056c0.012,0.061-0.112,0.358-0.372,0.891c-0.374,0.754-0.56,1.131-0.932,1.885
	c-3.002,5.972-5.874,9.265-8.733,9.881c-1.352,0.291-2.597,0.031-3.738-0.781c-1.141-0.812-1.883-1.979-2.222-3.506
	c-0.801-3.614,0.931-7.348,5.281-11.152c2.288-2,4.261-3.163,5.9-3.498c0.71-0.146,1.361-0.052,1.952,0.28s0.949,0.811,1.074,1.435
	c0.292,1.452-0.385,2.872-2.018,4.266c-1.634,1.394-6.751,2.821-8.605,4.79c-1.055,1.119-1.157,4.229-0.854,5.615
	c0.378,1.729,1.465,2.395,3.263,2.007c3.055-0.657,6.114-4.568,9.359-11.669c0.169-0.369,0.351-0.592,0.491-0.602
	C246.626,129.893,246.689,129.956,246.709,130.056 M243.087,124.949c-0.131-0.645-0.542-0.897-1.232-0.756
	c-1.046,0.214-2.271,1.238-3.661,3.074s-3.755,6.807-3.755,6.807c0.136,0.125,4.81-2.902,6.49-4.667
	C242.608,127.642,243.333,126.158,243.087,124.949"/>
<path d="M263.472,126.844c0.029,0.163-0.442,1.012-1.367,2.542c-1.185,1.961-2.42,3.086-3.73,3.331
	c-1.485,0.277-2.396-0.471-2.733-2.249c-0.107-0.565-0.055-2.219-0.055-2.219c-0.064-0.024-1.817,2.639-2.378,3.878
	c-0.561,1.239-1.352,6.352-2.68,7.438c-0.374,0.307-1.65,0.203-1.824,0.237c-0.077,0.016-0.66,0.174-1.746,0.478
	c1.252-3.602,1.888-5.403,3.18-9.001c1.612-4.509,2.353-7.245,2.167-8.214c-0.108-0.565-0.391-0.805-0.846-0.717
	c-1.108,0.214-2.799,2.819-4.721,7.702c-0.123,0.311-0.264,0.509-0.386,0.518c-0.072,0.005-0.144-0.065-0.154-0.158
	c-0.01-0.095,0.023-0.194,0.069-0.266c0.151-0.345,0.227-0.518,0.378-0.864c2.195-4.747,3.872-7.222,4.962-7.432
	c1.583-0.305,2.573,0.588,2.968,2.669c0.294,1.556-1.235,6.642-1.235,6.642c0.004,0.002,1.942-2.688,2.344-3.524
	c0.653-1.359,1.054-3.621,1.945-5.041c0.891-1.42,1.786-2.211,2.676-2.373c0.614-0.111,0.97,0.107,1.069,0.653
	c0.175,0.972-0.952,2.603-3.352,4.91c-0.38,0.364-0.952,0.899-1.713,1.607c-0.119,0.148-0.178,0.222-0.297,0.37
	c-0.1,0.981-0.091,1.775,0.024,2.381c0.32,1.698,1.096,2.43,2.329,2.2c1.525-0.285,2.861-2.149,4.279-4.846
	c0.265-0.503,0.519-0.784,0.617-0.802C263.38,126.673,263.45,126.722,263.472,126.844"/>
<path d="M273.149,117.988c-0.065,0.199-0.097,0.298-0.162,0.496c-1.559,0.26-2.338,0.391-3.895,0.657
	c-1.859,5.088-2.769,7.634-4.552,12.729c-0.551,1.541-0.747,2.726-0.597,3.555c0.164,0.911,0.703,1.284,1.616,1.12
	c1.769-0.316,4.137-4.129,7.338-11.212c0.102-0.225,0.205-0.347,0.304-0.363c0.118-0.02,0.206,0.048,0.207,0.152
	c0.001,0.055-0.08,0.243-0.213,0.538c-0.388,0.803-0.581,1.206-0.966,2.01c-2.796,5.924-5.061,9.057-6.907,9.388
	c-0.913,0.164-1.736-0.043-2.474-0.619c-0.738-0.576-1.202-1.379-1.391-2.411c-0.223-1.214,0.014-2.826,0.722-4.835
	c1.354-3.782,2.041-5.672,3.436-9.45c-1.212,0.213-1.817,0.32-3.029,0.537c0.086-0.204,0.129-0.305,0.216-0.509
	c1.188-0.212,1.782-0.317,2.971-0.525c0.979-2.602,1.473-3.902,2.472-6.501c0.626,0.06,1.209,0.044,1.748-0.046
	c0.559-0.095,1.124-0.273,1.696-0.535c-0.984,2.591-1.472,3.887-2.437,6.48C270.81,118.378,271.59,118.247,273.149,117.988"/>
<path d="M283.507,123.498c0,0.054-0.083,0.242-0.219,0.534c-0.397,0.799-0.595,1.199-0.989,1.999
	c-2.866,5.89-5.207,9.001-7.132,9.323c-0.915,0.152-1.735-0.059-2.464-0.634c-0.728-0.574-1.18-1.368-1.354-2.382
	c-0.201-1.175,0.165-3.075,1.117-5.696c1.295-3.535,1.951-5.301,3.282-8.831c0.638,0.043,1.136,0.035,1.493-0.023
	c0.536-0.086,1.278-0.278,2.228-0.574c-1.984,4.974-2.957,7.464-4.865,12.447c-0.685,1.803-0.947,3.151-0.797,4.043
	c0.153,0.913,0.687,1.292,1.602,1.14c1.733-0.289,4.969-4.321,7.644-11.151c0.077-0.197,0.15-0.335,0.249-0.351
	C283.42,123.324,283.507,123.393,283.507,123.498 M281.122,110.959c0.111,0.712-0.082,1.423-0.573,2.134
	c-0.492,0.713-1.085,1.123-1.782,1.233c-0.896,0.142-1.418-0.242-1.564-1.156c-0.108-0.67,0.099-1.364,0.62-2.083
	c0.521-0.717,1.123-1.13,1.803-1.237C280.488,109.715,280.986,110.085,281.122,110.959"/>
<path d="M300.757,98.715c0.236,1.815-0.746,4.258-2.909,7.34c-2.164,3.084-5.094,6.223-8.766,9.443
	c2.052-0.301,3.079-0.449,5.132-0.737c-0.082,0.198-0.122,0.298-0.204,0.496c-2.076,0.293-3.113,0.442-5.188,0.747
	c-0.692,2.085-1.036,3.128-1.717,5.214c-2.083,6.447-3.89,11.356-5.484,14.723c-1.593,3.367-3.535,6.47-5.826,9.285
	c-3.147,3.867-6.289,6.089-9.454,6.663c-1.41,0.256-2.155,0.169-2.235-0.265c-0.037-0.203,0.05-0.323,0.259-0.362
	c0.153-0.028,0.278-0.019,0.355-0.002c0.644,0.142,1.393,0.075,2.004-0.035c2.575-0.466,4.949-2.15,7.158-5.048
	c1.354-1.776,2.465-3.799,3.356-6.008c0.719-1.783,2.373-6.606,5.053-14.437c1.282-3.698,1.932-5.546,3.252-9.239
	c-1.275,0.192-1.913,0.29-3.187,0.487c0.066-0.197,0.1-0.296,0.167-0.494c1.299-0.201,1.949-0.3,3.249-0.496
	c1.88-4.796,4.159-9.033,6.832-12.7c2.673-3.667,4.889-5.608,6.595-5.833C300.112,97.336,300.632,97.756,300.757,98.715
	 M300.384,98.701c-0.088-0.673-0.467-0.966-1.137-0.878c-1.542,0.204-3.44,2.268-5.558,6.171
	c-1.064,1.961-4.457,10.858-4.457,10.858c0.09,0.059,5.552-5.864,7.884-9.211C299.447,102.295,300.552,99.986,300.384,98.701"/>
<path d="M301.732,120.879c-0.001,0.055-0.088,0.241-0.23,0.53c-0.414,0.79-0.62,1.186-1.032,1.977
	c-2.989,5.826-5.395,8.885-7.326,9.165c-0.916,0.132-1.731-0.097-2.447-0.687c-0.715-0.591-1.149-1.394-1.301-2.411
	c-0.175-1.18,0.231-3.071,1.239-5.671c1.369-3.505,2.063-5.256,3.469-8.756c0.636,0.056,1.134,0.059,1.492,0.009
	c0.537-0.075,1.282-0.25,2.238-0.526c-2.089,4.93-3.115,7.398-5.129,12.339c-0.723,1.787-1.014,3.129-0.883,4.024
	c0.133,0.916,0.659,1.307,1.576,1.174c1.737-0.251,5.058-4.211,7.876-10.981c0.082-0.196,0.157-0.332,0.257-0.345
	C301.649,120.704,301.735,120.775,301.732,120.879 M299.62,108.292c0.095,0.714-0.112,1.421-0.618,2.121
	c-0.507,0.702-1.109,1.099-1.807,1.194c-0.898,0.123-1.411-0.273-1.538-1.19c-0.093-0.672,0.128-1.362,0.664-2.069
	c0.536-0.706,1.147-1.106,1.829-1.197C299.013,107.034,299.503,107.416,299.62,108.292"/>
<path d="M316.495,119.053c0.031,0.266-1.174,2.154-3.569,5.645c-2.604,3.796-4.95,5.837-7.06,6.109
	c-1.367,0.177-2.609-0.214-3.732-1.174c-1.124-0.96-1.791-2.192-1.995-3.701c-0.231-1.712,0.195-3.576,1.295-5.589
	c1.1-2.013,2.725-3.829,4.827-5.447c1.782-1.372,3.29-2.151,4.506-2.297c1.475-0.178,2.319,0.635,2.531,2.431
	c0.167,1.41-0.129,2.873-0.88,4.392c-0.751,1.519-1.576,2.334-2.483,2.446c-0.887,0.109-1.388-0.294-1.502-1.213
	c-0.135-1.082,0.653-2.195,2.361-3.336c1.32-0.882,1.915-1.908,1.776-3.072c-0.109-0.919-0.651-1.321-1.627-1.203
	c-1.654,0.199-3.486,2.134-5.45,5.806c-1.964,3.672-2.773,6.655-2.471,8.938c0.253,1.916,1.239,2.759,2.959,2.538
	c2.697-0.348,5.884-4.168,9.866-10.887c0.21-0.355,0.404-0.557,0.508-0.556C316.427,118.884,316.483,118.951,316.495,119.053"/>
<path d="M337.372,116.918c0.039,0.431-1.262,2.553-3.776,6.368c-2.051,3.113-3.719,4.77-5.05,4.905
	c-0.901,0.092-1.671-0.186-2.313-0.832c-0.642-0.646-1.02-1.501-1.132-2.564c-0.116-1.105,0.569-3.689,0.569-3.689
	c-0.009-0.004-2.963,5.164-3.891,6.279c-0.928,1.116-1.877,1.729-2.854,1.84c-1.036,0.117-1.958-0.248-2.771-1.095
	c-0.812-0.847-1.303-1.975-1.469-3.384c-0.462-3.922,1.822-7.716,6.862-11.33c2.221-1.593,4.072-2.479,5.53-2.626
	c1.238-0.126,1.918,0.428,2.039,1.655c0.035,0.349,0.001,0.818-0.102,1.406c0.491-1.252,0.737-1.877,1.232-3.128
	c0.613,0.085,1.149,0.106,1.608,0.062c0.539-0.052,1.23-0.19,2.076-0.413c-1.786,3.797-2.667,5.698-4.407,9.505
	c-1.504,3.332-2.188,5.502-2.085,6.505c0.099,0.961,0.53,1.402,1.294,1.325c0.784-0.08,1.942-1.144,3.491-3.187
	c1.549-2.043,3.217-4.56,4.655-7.433c0.103-0.207,0.201-0.328,0.3-0.337C337.297,116.739,337.361,116.795,337.372,116.918
	 M328.68,112.613c-0.1-1.003-0.599-1.46-1.496-1.369c-1.837,0.186-4.063,2.277-6.621,6.282c-2.558,4.005-3.676,7.15-3.415,9.418
	c0.153,1.328,0.796,1.926,1.93,1.797c1.349-0.152,3.42-2.756,6.277-7.788C327.696,116.827,328.823,114.046,328.68,112.613"/>
<path d="M347.849,108.941c-0.082,0.192-0.123,0.288-0.205,0.48c-1.571,0.121-2.356,0.183-3.927,0.312
	c-2.291,4.903-3.418,7.359-5.634,12.278c-0.681,1.486-0.98,2.649-0.904,3.488c0.084,0.922,0.587,1.34,1.509,1.258
	c1.784-0.159,4.47-3.748,8.269-10.522c0.12-0.215,0.234-0.327,0.333-0.335c0.119-0.009,0.201,0.066,0.193,0.17
	c-0.004,0.055-0.101,0.235-0.259,0.517c-0.455,0.766-0.682,1.15-1.135,1.917c-3.295,5.655-5.819,8.576-7.682,8.743
	c-0.921,0.083-1.721-0.195-2.403-0.834c-0.683-0.639-1.074-1.481-1.171-2.525c-0.115-1.228,0.261-2.813,1.14-4.752
	c1.674-3.648,2.522-5.47,4.238-9.11c-1.222,0.105-1.834,0.158-3.056,0.268c0.104-0.196,0.155-0.293,0.259-0.488
	c1.199-0.107,1.798-0.159,2.998-0.262c1.199-2.505,1.803-3.756,3.023-6.257c0.617,0.115,1.197,0.15,1.741,0.107
	c0.563-0.044,1.141-0.172,1.732-0.383c-1.205,2.494-1.803,3.742-2.988,6.24C345.491,109.124,346.277,109.062,347.849,108.941"/>
<path d="M362.485,115.067c0.004,0.062-0.159,0.339-0.487,0.832c-0.472,0.695-0.707,1.043-1.177,1.739
	c-3.774,5.502-7.055,8.368-9.957,8.585c-1.373,0.103-2.564-0.326-3.578-1.288c-1.015-0.961-1.587-2.22-1.713-3.778
	c-0.297-3.69,1.919-7.149,6.725-10.319c2.528-1.666,4.633-2.547,6.294-2.653c0.721-0.047,1.35,0.136,1.887,0.546
	c0.537,0.41,0.825,0.933,0.864,1.569c0.09,1.478-0.771,2.791-2.572,3.947c-1.801,1.157-7.045,1.872-9.137,3.561
	c-1.194,0.964-1.717,4.03-1.607,5.444c0.138,1.764,1.119,2.573,2.944,2.437c3.1-0.231,6.65-3.683,10.818-10.271
	c0.217-0.342,0.427-0.537,0.566-0.528C362.426,114.895,362.479,114.965,362.485,115.067 M359.61,109.511
	c-0.041-0.657-0.412-0.963-1.112-0.918c-1.06,0.068-2.408,0.914-4.029,2.541c-1.621,1.627-4.63,6.225-4.63,6.225
	c0.118,0.143,5.139-2.212,7.035-3.729C358.77,112.112,359.688,110.743,359.61,109.511"/>
<path d="M390.905,113.779c0.009,0.328-0.559,1.112-1.695,2.354c-1.694,1.854-3.263,2.806-4.725,2.856
	c-0.614,0.021-1.497-0.356-1.645-0.313c-1.496,0.435-4.819,5.959-7.097,6.061c-1.177,0.053-2.207-0.408-3.092-1.385
	c-0.885-0.976-1.365-2.172-1.436-3.589c-0.158-3.163,1.691-6.319,5.589-9.431c2.744-2.191,5.054-3.322,6.898-3.385
	c1.722-0.06,2.614,0.86,2.674,2.751c0.074,2.364-3.511,7.844-3.319,8.662c0.029,0.122,0.853,0.34,1.348,0.323
	c0.888-0.031,1.912-0.495,3.077-1.392c1.164-0.897,2.088-2.048,2.833-3.188c0.189-0.289,0.368-0.441,0.467-0.444
	C390.861,113.657,390.903,113.697,390.905,113.779 M385.928,109.774c-0.053-1.665-0.811-2.475-2.273-2.424
	c-1.822,0.063-3.985,1.934-6.439,5.62c-2.455,3.686-3.599,6.759-3.484,9.204c0.067,1.417,0.748,2.095,2.044,2.037
	c2.12-0.095,6.894-4.215,6.75-5.77c-0.031-0.336-0.91-1.304-0.936-2.003c-0.038-1.007,0.31-2.06,1.046-3.156
	c0.737-1.097,1.476-1.658,2.214-1.683c0.318-0.01,0.678,0.595,0.678,0.595C385.575,112.196,385.956,110.658,385.928,109.774"/>
<path d="M411.107,91.414c0.005,1.831-1.276,4.129-3.807,6.912c-2.532,2.785-5.828,5.527-9.868,8.256
	c2.068-0.039,3.102-0.055,5.171-0.081c-0.106,0.187-0.159,0.28-0.265,0.467c-2.091,0.027-3.137,0.043-5.228,0.083
	c-0.948,1.98-1.42,2.971-2.357,4.953c-2.876,6.132-5.284,10.772-7.285,13.909c-2.002,3.138-4.314,5.969-6.935,8.471
	c-3.6,3.436-6.986,5.241-10.186,5.408c-1.426,0.075-2.151-0.106-2.175-0.547c-0.012-0.206,0.089-0.314,0.301-0.326
	c0.155-0.008,0.276,0.017,0.351,0.043c0.618,0.222,1.367,0.252,1.985,0.22c2.604-0.135,5.163-1.504,7.714-4.098
	c1.562-1.59,2.916-3.456,4.076-5.533c0.936-1.677,3.181-6.252,6.821-13.679c1.735-3.506,2.612-5.256,4.384-8.752
	c-1.286,0.029-1.929,0.045-3.214,0.079c0.091-0.188,0.136-0.281,0.228-0.469c1.31-0.035,1.966-0.051,3.277-0.08
	c2.465-4.519,5.256-8.432,8.364-11.732c3.109-3.298,5.548-4.943,7.265-4.95C410.644,89.965,411.105,90.447,411.107,91.414
	 M410.74,91.353c-0.002-0.679-0.34-1.017-1.014-1.014c-1.553,0.006-3.692,1.813-6.282,5.416c-1.301,1.81-5.783,10.205-5.783,10.205
	c0.083,0.07,6.235-5.113,8.967-8.137C409.358,94.799,410.744,92.649,410.74,91.353"/>
<path d="M491.857,89.756c-0.033,0.369-0.264,0.534-0.693,0.495c-0.184-0.016-0.859-0.202-2.023-0.55
	c-2.147-0.641-4.167-1.217-5.407-1.133c-2.942,0.199-6.437,2.47-9.154,5.186c-2.718,2.715-5.894,7.215-9.448,13.508
	C459.678,116.919,445.809,124,445.809,124c0,0.031,2.882,0.486,4.022,0.536c3.612,0.157,6.702-0.904,9.298-3.194
	c2.511-2.214,4.646-4.608,6.403-7.116c0.193-0.276,0.345-0.412,0.444-0.406c0.119,0.007,0.197,0.062,0.201,0.136
	c0.015,0.273-1.274,1.828-3.709,4.573c-2.274,2.564-4.291,4.322-6.072,5.251c-1.782,0.928-3.915,1.335-6.406,1.226
	c-1.432-0.063-3.673-0.899-5.216-0.861c-0.976,0.024-2.723,0.549-4.352,0.497c-1.139-0.037-1.701-0.27-1.688-0.702
	c0.015-0.493,0.788-0.717,2.321-0.667c1.081,0.036,2.58,0.455,3.732,0.441c2.533-0.033,5.432-1.797,7.081-3.472
	c1.647-1.675,4.88-6.262,9.867-13.704c-4.631-0.262-6.947-0.377-11.58-0.577c-5.143,5.09-9.023,8.743-11.742,10.902
	c-6.346,5.039-12.161,7.546-17.597,7.497c-3.101-0.028-5.729-0.796-7.904-2.317c-2.175-1.52-3.276-3.364-3.286-5.544
	c-0.005-1.131,0.323-2.099,0.986-2.904c0.663-0.804,1.474-1.207,2.43-1.207c1.294-0.001,1.939,0.649,1.936,1.945
	c-0.001,0.679-0.224,1.259-0.668,1.742s-0.96,0.724-1.55,0.724c-0.924,0.001-1.388-0.46-1.39-1.386
	c0.023-0.247,0.035-0.37,0.058-0.617c0.038-0.082,0.058-0.195,0.058-0.34c0-0.204-0.09-0.308-0.267-0.307
	c-0.197,0-0.394,0.258-0.59,0.773c-0.195,0.515-0.292,1.04-0.29,1.574c0.007,2.015,1.031,3.712,3.056,5.1
	c2.027,1.389,4.504,2.09,7.448,2.116c4.219,0.038,8.882-2.118,14.087-6.266c1.177-0.938,2.523-2.19,4.001-3.715
	c2.903-2.998,5.298-5.32,7.066-6.981c0.375-0.369,0.562-0.553,0.938-0.921c-2.335-0.092-3.503-0.134-5.839-0.209
	c0.152-0.218,0.228-0.326,0.38-0.543c1.927,0.063,4.857,0.699,5.93,0.276c4.801-1.891,12.183-11.067,17.988-13.821
	c5.805-2.753,12.477-3.324,18.192-3.44c1.348-0.028,2.853-0.201,4.124-0.092C490.558,88.242,491.94,88.834,491.857,89.756
	 M458.687,93.01c-0.012,0.227-0.423,0.753-1.216,1.58c-2.198,2.293-4.207,3.418-6.052,3.336c-1.176-0.052-2.116-0.508-2.823-1.37
	c-0.708-0.863-1.037-1.971-0.983-3.327c0.045-1.151,0.787-2.994,2.248-5.497c0.68-1.164,1.046-2.138,1.08-2.918
	c0.044-1.028-0.489-1.931-1.603-2.708c-1.115-0.776-2.5-1.196-4.151-1.255c-4.728-0.171-9.174,1.517-13.264,5.05
	c-4.09,3.534-6.127,7.43-6.187,11.645c-0.031,2.139,0.606,3.895,1.902,5.275c1.298,1.379,2.986,2.088,5.076,2.136
	c2.271,0.051,4.576-0.736,6.935-2.361c2.359-1.626,4.218-3.673,5.104-5.957c0.073-0.189,0.153-0.303,0.254-0.299
	c0.183,0.007,0.27,0.114,0.263,0.318c-0.016,0.432-0.4,1.185-1.148,2.259c-0.747,1.074-1.511,1.968-2.277,2.684
	c-2.813,2.624-5.888,3.922-9.262,3.847c-2.29-0.052-4.112-0.804-5.479-2.266c-1.366-1.461-2.037-3.382-2.005-5.768
	c0.059-4.339,2.177-8.339,6.433-11.953c4.255-3.614,8.882-5.34,13.798-5.161c2.17,0.079,3.848,0.682,5.03,1.802
	c1.181,1.121,1.728,2.618,1.645,4.487c-0.062,1.397-0.639,3.032-1.688,4.898c-0.954,1.698-1.435,2.873-1.46,3.49
	c-0.063,1.52,0.799,2.316,2.585,2.395c2.029,0.089,4.19-1.391,6.534-4.274c0.192-0.237,0.356-0.353,0.479-0.347
	C458.618,92.76,458.695,92.846,458.687,93.01 M482.157,88.566c-0.002-0.027-10.438,1.042-15.157,3.574
	c-4.721,2.532-10.213,6.967-16.343,13.349c4.564,0.199,6.845,0.313,11.407,0.573c2.829-4.432,6.223-8.348,10.13-11.731
	C476.057,90.985,482.157,88.566,482.157,88.566"/>
<path d="M480.06,116.142c-0.021,0.267-1.563,1.888-4.581,4.856c-3.282,3.226-5.972,4.779-8.09,4.642
	c-1.375-0.089-2.516-0.711-3.434-1.868c-0.917-1.158-1.333-2.495-1.244-4.014c0.101-1.725,0.876-3.473,2.341-5.238
	c1.463-1.765,3.402-3.236,5.772-4.42c2.01-1.005,3.638-1.48,4.859-1.391c1.479,0.108,2.151,1.068,2.014,2.872
	c-0.107,1.416-0.677,2.795-1.705,4.142c-1.027,1.346-1.992,1.988-2.903,1.924c-0.89-0.063-1.303-0.555-1.239-1.479
	c0.075-1.087,1.06-2.029,2.954-2.821c1.462-0.612,2.242-1.506,2.33-2.675c0.069-0.922-0.387-1.421-1.366-1.492
	c-1.659-0.122-3.824,1.426-6.453,4.653c-2.63,3.227-3.993,6-4.135,8.298c-0.119,1.93,0.684,2.946,2.413,3.058
	c2.709,0.176,6.565-2.956,11.759-8.793c0.274-0.307,0.502-0.469,0.603-0.448C480.026,115.963,480.068,116.04,480.06,116.142"/>
<path d="M499.06,117.794c-0.017,0.164-0.135,0.339-0.354,0.523c-0.584,0.674-0.876,1.011-1.458,1.685
	c-4.25,4.979-7.224,7.407-9.027,7.246c-0.941-0.085-1.679-0.506-2.216-1.264c-0.537-0.76-0.761-1.671-0.669-2.737
	c0.123-1.434,1.029-3.255,2.739-5.428c2.657-3.374,4.063-5.393,4.125-6.069c0.074-0.798-0.298-1.236-1.117-1.31
	c-1.197-0.11-2.947,0.956-5.223,3.192c-2.183,2.146-6.692,11.551-9.205,12.504c-0.225,0.086-1.074-0.266-1.486-0.297
	c-0.431-0.032-1.014-0.013-1.748,0.059c1.964-3.15,2.955-4.722,4.952-7.86c0.684-1.123,1.714-2.844,3.145-4.951
	c0.712-1.049,3.039-4.422,6.984-10.064c2.114-3.011,3.18-4.513,5.327-7.511c0.598,0.18,1.11,0.29,1.537,0.331
	c0.813,0.077,2.345-0.085,2.345-0.085c0.145,0.236-6.149,8.043-10.778,14.498c-0.138,0.193-5.286,7.545-5.286,7.545
	c0.002,0.001,7.42-8.011,9.599-7.812c0.858,0.079,1.557,0.526,2.095,1.341c0.537,0.815,0.753,1.766,0.65,2.851
	c-0.134,1.412-1.207,3.365-3.188,5.867c-2.208,2.789-3.33,4.573-3.397,5.33c-0.078,0.881,0.304,1.359,1.148,1.435
	c1.529,0.137,4.283-2.218,8.357-7.03c0.42-0.492,0.63-0.738,1.052-1.23c0.241-0.249,0.361-0.373,0.602-0.622
	c0.121-0.195,0.249-0.286,0.388-0.271C499.033,117.668,499.068,117.713,499.06,117.794"/>
<path d="M509.265,118.955c-0.014,0.052-0.144,0.211-0.352,0.458c-0.593,0.666-0.889,0.999-1.479,1.667
	c-4.312,4.927-7.385,7.311-9.323,7.114c-0.92-0.094-1.653-0.513-2.204-1.26c-0.55-0.746-0.776-1.631-0.676-2.654
	c0.116-1.188,0.969-2.923,2.575-5.201c2.176-3.069,3.273-4.599,5.485-7.654c0.603,0.209,1.084,0.333,1.444,0.371
	c0.538,0.058,1.303,0.069,2.297,0.033c-3.221,4.276-4.813,6.421-7.963,10.726c-1.135,1.559-1.742,2.79-1.832,3.69
	c-0.093,0.921,0.322,1.427,1.242,1.521c1.743,0.178,5.923-2.859,10.297-8.742c0.127-0.17,0.233-0.284,0.333-0.273
	C509.227,118.764,509.293,118.855,509.265,118.955 M510.271,106.231c-0.081,0.716-0.454,1.351-1.114,1.908
	c-0.661,0.557-1.341,0.797-2.041,0.72c-0.901-0.099-1.302-0.608-1.202-1.527c0.073-0.676,0.454-1.291,1.145-1.847
	c0.691-0.555,1.38-0.794,2.064-0.718C509.987,104.864,510.37,105.353,510.271,106.231"/>
<path d="M524.262,120.828c-0.008,0.061-0.221,0.302-0.637,0.724c-0.597,0.593-0.894,0.889-1.488,1.483
	c-4.756,4.685-8.526,6.876-11.419,6.537c-1.369-0.16-2.458-0.807-3.272-1.944c-0.814-1.136-1.138-2.481-0.965-4.035
	c0.409-3.679,3.242-6.655,8.568-8.853c2.802-1.156,5.038-1.621,6.692-1.41c0.717,0.092,1.302,0.391,1.752,0.895
	c0.451,0.505,0.634,1.073,0.552,1.705c-0.193,1.468-1.289,2.594-3.28,3.387c-1.991,0.793-7.28,0.498-9.658,1.76
	c-1.355,0.719-2.452,3.63-2.612,5.04c-0.2,1.758,0.61,2.739,2.429,2.952c3.092,0.362,7.236-2.359,12.586-8.029
	c0.279-0.295,0.523-0.447,0.658-0.411C524.237,120.647,524.276,120.726,524.262,120.828 M522.49,114.826
	c0.084-0.653-0.222-1.024-0.919-1.113c-1.056-0.134-2.541,0.44-4.444,1.729c-1.902,1.29-5.732,5.233-5.732,5.233
	c0.088,0.162,5.47-1.196,7.623-2.325C521.17,117.22,522.332,116.05,522.49,114.826"/>
<path d="M540.818,123.083c-0.037,0.245-0.788,0.934-2.218,2.075c-1.99,1.588-3.617,2.311-4.893,2.127
	c-0.865-0.125-1.899-1.765-1.944-1.774c-0.478-0.087-3.758,3.8-4.984,4.618c-1.225,0.819-2.391,1.155-3.503,1.008
	c-0.995-0.131-1.786-0.603-2.377-1.415c-0.59-0.812-0.821-1.728-0.691-2.748c0.154-1.204,1.034-2.875,2.656-5.007
	c2.292-2.999,3.447-4.495,5.774-7.478c0.961,0.235,1.61,0.376,1.949,0.423c0.736,0.102,1.329,0.133,1.782,0.093
	c-3.075,3.779-4.598,5.676-7.613,9.482c-1.666,2.144-2.55,3.668-2.667,4.565c-0.125,0.959,0.33,1.505,1.365,1.642
	c0.956,0.126,1.997-0.201,3.128-0.981c1.132-0.78,4.511-2.939,5.057-4.593c0.111-0.339-0.103-1.188-0.037-1.656
	c0.261-1.853,1.081-3.681,2.47-5.476c1.39-1.796,2.607-2.617,3.641-2.465c0.497,0.073,0.702,0.405,0.615,0.995
	c-0.226,1.526-5.63,5.917-6.285,8.721c-0.118,0.505,0.856,1.524,1.721,1.649c1.492,0.215,3.508-0.938,6.073-3.328
	c0.461-0.429,0.763-0.635,0.881-0.617C540.797,122.955,540.83,123.002,540.818,123.083"/>
<path d="M555.686,125.57c-0.011,0.061-0.233,0.294-0.665,0.7c-0.619,0.57-0.928,0.855-1.544,1.426
	c-4.934,4.503-8.787,6.55-11.669,6.104c-1.364-0.212-2.429-0.9-3.201-2.066c-0.772-1.167-1.046-2.522-0.816-4.069
	c0.546-3.661,3.491-6.528,8.903-8.525c2.846-1.049,5.101-1.43,6.748-1.157c0.715,0.119,1.288,0.439,1.72,0.96
	c0.432,0.522,0.595,1.097,0.488,1.725c-0.247,1.46-1.386,2.543-3.407,3.261c-2.022,0.718-7.302,0.222-9.729,1.395
	c-1.383,0.668-2.589,3.536-2.802,4.939c-0.266,1.749,0.508,2.759,2.321,3.041c3.079,0.478,7.327-2.086,12.892-7.55
	c0.29-0.284,0.54-0.426,0.674-0.386C555.668,125.389,555.703,125.469,555.686,125.57 M554.136,119.506
	c0.108-0.649-0.184-1.032-0.878-1.147c-1.051-0.174-2.559,0.344-4.511,1.561c-1.952,1.217-5.931,5.014-5.931,5.014
	c0.082,0.165,5.519-0.99,7.714-2.037C552.726,121.849,553.933,120.723,554.136,119.506"/>
<path d="M588.401,131.769c-0.019,0.051-0.163,0.197-0.395,0.422c-0.655,0.607-0.982,0.911-1.635,1.519
	c-4.77,4.496-7.976,6.596-9.72,6.25c-0.91-0.181-1.587-0.682-2.03-1.501c-0.444-0.821-0.56-1.786-0.343-2.896
	c0.22-1.13,0.827-2.28,1.826-3.446c0.184-0.216,1.108-1.163,2.782-2.816c2.12-2.093,3.277-3.507,3.428-4.253
	c0.167-0.826-0.155-1.321-0.963-1.483c-2.606-0.523-11.716,12.694-16.45,13.865c-0.161,0.04-0.899-0.29-1.578-0.414
	c-0.796-0.144-1.482-0.226-2.06-0.246c2.144-2.436,3.222-3.651,5.391-6.074c3.547-3.989,5.447-6.472,5.639-7.483
	c0.172-0.909-0.108-1.433-0.839-1.571c-1.088-0.204-3.172,1.058-6.211,3.809c-3.041,2.751-7.447,9.824-9.338,10.377
	c-0.18,0.052-0.999-0.298-1.699-0.417c-0.757-0.129-1.426-0.2-2.002-0.213c2.127-2.458,3.197-3.684,5.351-6.129
	c3.712-4.199,5.703-6.838,5.902-7.952c0.108-0.607-0.066-0.952-0.523-1.033c-0.971-0.172-3.379,1.64-7.154,5.472
	c-0.245,0.251-0.444,0.376-0.545,0.346c-0.069-0.021-0.104-0.101-0.087-0.203c0.031-0.182,1.148-1.299,3.372-3.327
	c2.171-1.977,3.759-2.875,4.732-2.702c0.634,0.113,1.124,0.52,1.469,1.219c0.345,0.7,0.44,1.475,0.286,2.325
	c-0.212,1.174-2.62,4.575-2.62,4.575c0.004,0.003,7.648-6.885,9.389-6.557c0.831,0.156,1.448,0.63,1.851,1.419
	c0.402,0.788,0.503,1.698,0.305,2.728c-0.221,1.151-2.4,4.095-2.4,4.095c0.004,0.004,8.092-6.728,9.968-6.352
	c0.849,0.17,1.49,0.688,1.92,1.552c0.43,0.864,0.535,1.83,0.317,2.898c-0.255,1.25-1.045,2.948-2.331,4.091
	c-0.019,0.017-1.13,1.152-3.293,3.366c-1.234,1.262-1.938,2.279-2.089,3.045c-0.163,0.828,0.153,1.319,0.948,1.477
	c1.512,0.301,4.51-1.747,9.085-6.095c0.472-0.444,0.708-0.666,1.181-1.11c0.267-0.222,0.401-0.333,0.669-0.555
	c0.139-0.18,0.259-0.26,0.356-0.24C588.381,131.576,588.438,131.671,588.401,131.769"/>
<path d="M603.215,135.062c-0.014,0.06-0.25,0.28-0.705,0.66c-0.652,0.533-0.977,0.8-1.627,1.334
	c-5.193,4.212-9.166,6.034-12.025,5.422c-1.354-0.29-2.381-1.038-3.088-2.247c-0.706-1.209-0.903-2.578-0.585-4.109
	c0.754-3.624,3.864-6.318,9.393-8c2.909-0.883,5.187-1.134,6.821-0.766c0.708,0.16,1.264,0.513,1.667,1.058
	c0.403,0.546,0.533,1.129,0.391,1.75c-0.33,1.444-1.532,2.46-3.595,3.06c-2.065,0.6-7.319-0.201-9.818,0.832
	c-1.421,0.588-2.791,3.382-3.084,4.77c-0.365,1.731,0.353,2.785,2.151,3.17c3.055,0.655,7.452-1.66,13.332-6.795
	c0.306-0.267,0.565-0.395,0.696-0.347C603.207,134.879,603.238,134.962,603.215,135.062 M602.007,128.917
	c0.145-0.642-0.126-1.041-0.814-1.196c-1.043-0.234-2.581,0.196-4.604,1.299c-2.022,1.103-6.22,4.664-6.22,4.664
	c0.072,0.17,5.579-0.67,7.837-1.589C600.463,131.175,601.734,130.121,602.007,128.917"/>
<path d="M626.587,140.745c-0.109,0.419-2.026,1.981-5.701,4.724c-3.017,2.251-5.163,3.224-6.469,2.902
	c-0.866-0.214-1.506-0.742-1.922-1.585c-0.416-0.842-0.502-1.773-0.254-2.792c0.219-0.899,0.6-1.69,1.146-2.372
	c0.544-0.682,1.862-1.978,3.93-3.879c2.168-1.993,3.345-3.332,3.51-3.99c0.205-0.818-0.115-1.333-0.956-1.543
	c-2.86-0.711-11.796,11.673-17.017,13.105c-0.423,0.117-1.485-0.469-1.677-0.514c-0.674-0.155-1.32-0.26-1.935-0.315
	c2.48-2.562,3.727-3.839,6.238-6.383c3.573-3.644,5.515-5.979,5.767-7.04c0.143-0.6-0.032-0.959-0.523-1.075
	c-1.002-0.238-3.515,1.447-7.42,5.094c-0.235,0.219-0.415,0.338-0.506,0.327c-0.09-0.011-0.16-0.12-0.135-0.221
	c0.021-0.084,0.1-0.167,0.172-0.214c0.292-0.25,0.438-0.375,0.73-0.625c3.936-3.43,6.457-5.004,7.499-4.756
	c0.669,0.158,1.165,0.605,1.488,1.338c0.322,0.733,0.379,1.529,0.173,2.389c-0.308,1.28-3.47,4.816-3.47,4.816
	c0.001,0.001,5.386-4.513,6.921-5.407c1.536-0.895,2.837-1.209,3.894-0.946c0.863,0.215,1.498,0.756,1.904,1.621
	c0.406,0.866,0.474,1.828,0.207,2.884c-0.338,1.336-1.754,3.151-4.221,5.461c-2.522,2.359-3.865,3.937-4.056,4.716
	c-0.202,0.819,0.092,1.324,0.881,1.52c1.711,0.423,6.167-2.011,11.305-7.241c0.15-0.153,0.271-0.248,0.369-0.223
	C626.575,140.551,626.618,140.625,626.587,140.745"/>
<path d="M639.161,136.77c-0.143,0.153-0.214,0.23-0.356,0.383c-1.533-0.419-2.299-0.627-3.833-1.038
	c-3.829,3.84-5.727,5.77-9.488,9.65c-1.148,1.168-1.824,2.162-2.034,2.978c-0.232,0.897,0.104,1.461,1.005,1.695
	c1.747,0.455,5.505-2.007,11.397-7.104c0.187-0.161,0.333-0.229,0.43-0.202c0.116,0.031,0.168,0.13,0.125,0.225
	c-0.022,0.05-0.175,0.187-0.42,0.399c-0.691,0.567-1.035,0.851-1.724,1.42c-5.036,4.207-8.417,6.102-10.239,5.629
	c-0.901-0.234-1.566-0.767-1.997-1.6c-0.432-0.832-0.519-1.756-0.26-2.772c0.306-1.196,1.198-2.561,2.685-4.089
	c2.819-2.867,4.237-4.296,7.094-7.141c-1.195-0.315-1.793-0.472-2.989-0.783c0.164-0.148,0.246-0.223,0.41-0.371
	c1.173,0.305,1.759,0.459,2.932,0.768c1.983-1.952,2.979-2.925,4.98-4.866c0.547,0.317,1.086,0.548,1.615,0.691
	c0.55,0.149,1.142,0.225,1.774,0.227c-1.985,1.939-2.974,2.911-4.942,4.862C636.861,136.143,637.628,136.351,639.161,136.77"/>
</svg>
